<?xml version="1.0" encoding="utf-8"?>
<!-- Generator: Adobe Illustrator 22.1.0, SVG Export Plug-In . SVG Version: 6.00 Build 0)  -->
<svg version="1.1" id="Layer_1" xmlns="http://www.w3.org/2000/svg" xmlns:xlink="http://www.w3.org/1999/xlink" x="0px" y="0px"
	 viewBox="0 0 63 63" style="enable-background:new 0 0 63 63;" xml:space="preserve">
<style type="text/css">
	.st0{fill:#FFFFFF;}
</style>
<g>
	<path class="st0" d="M59.2,18.8c0-1-0.2-2-0.7-2.8c-0.4-0.8-1.1-1.4-2-1.9c-7.3-4.2-14.7-8.5-22-12.7c-2-1.1-3.9-1.1-5.9,0.1
		C25.7,3.2,11.1,11.6,6.7,14.1c-1.8,1-2.7,2.6-2.7,4.7c0,8.5,0,17,0,25.5c0,1,0.2,1.9,0.6,2.7s1.1,1.5,2,2
		c4.4,2.5,19,10.9,21.9,12.6c2,1.2,3.9,1.2,5.9,0.1c7.3-4.2,14.7-8.5,22-12.7c0.9-0.5,1.6-1.2,2-2s0.6-1.7,0.6-2.7
		C59.2,44.4,59.2,27.3,59.2,18.8z M31.6,49.9c-6.8,0-12.7-3.7-15.9-9.2c-1.5-2.7-2.4-5.8-2.4-9.1c0-10.1,8.2-18.3,18.3-18.3
		c6.8,0,12.7,3.7,15.9,9.2l-8,4.6c-1.6-2.7-4.5-4.6-7.9-4.6c-5,0-9.1,4.1-9.1,9.1c0,1.6,0.4,3.2,1.2,4.5c1.6,2.8,4.5,4.6,7.9,4.6
		s6.4-1.9,7.9-4.7l8,4.6C44.3,46.2,38.4,49.9,31.6,49.9z M55.1,30.5h-1.5v2.2h1.5v1.8h-1.5V36h-1.8v-1.5h-2.2V36h-1.8v-1.5h-1.5
		v-1.8h1.5v-2.2h-1.5v-1.8h1.5v-1.5h1.8v1.5h2.2v-1.5h1.8v1.5h1.5V30.5z"/>
	<rect x="49.6" y="30.5" class="st0" width="2.2" height="2.2"/>
	<path class="st0" d="M51.8,32.8h-2.2v-2.2h2.2V32.8z"/>
</g>
</svg>
