<?xml version="1.0" encoding="utf-8"?>
<!-- Generator: Adobe Illustrator 22.1.0, SVG Export Plug-In . SVG Version: 6.00 Build 0)  -->
<svg version="1.0" id="Layer_1" xmlns="http://www.w3.org/2000/svg" xmlns:xlink="http://www.w3.org/1999/xlink" x="0px" y="0px"
	 viewBox="0 0 70 70" style="enable-background:new 0 0 70 70;" xml:space="preserve">
<style type="text/css">
	.st0{fill:#FFFFFF;}
</style>
<path class="st0" d="M63.4,23c0-1-0.2-2-0.7-2.8c-0.4-0.8-1.1-1.4-2-1.9c-7.3-4.2-14.7-8.5-22-12.7c-2-1.1-3.9-1.1-5.9,0.1
	c-2.9,1.7-17.6,10.1-21.9,12.6c-1.8,1-2.7,2.6-2.7,4.7c0,8.5,0,17,0,25.5c0,1,0.2,1.9,0.6,2.7c0.4,0.8,1.1,1.5,2,2
	c4.4,2.5,19,10.9,21.9,12.6c2,1.2,3.9,1.2,5.9,0.1c7.3-4.2,14.7-8.5,22-12.7c0.9-0.5,1.6-1.2,2-2l-11-6.4c-3.2,5.5-9.1,9.2-15.9,9.2
	S23,50.3,19.8,44.8c-1.5-2.7-2.4-5.8-2.4-9.1c0-10.1,8.2-18.3,18.3-18.3c6.8,0,12.7,3.7,15.9,9.2l-8,4.6c-1.6-2.7-4.5-4.5-7.9-4.5
	c-5,0-9.1,4.1-9.1,9.1c0,1.6,0.4,3.2,1.2,4.5c1.6,2.7,4.5,4.6,7.9,4.6s6.4-1.9,7.9-4.6l19,11c0.4-0.8,0.6-1.7,0.6-2.7
	C63.4,48.5,63.4,31.5,63.4,23z M54.2,36.8h-2.1v2.1H50v-2.1h-2.1v-2.1H50v-2.1h2.1v2.1h2.1C54.2,34.7,54.2,36.8,54.2,36.8z
	 M61.9,36.8h-2.1v2.1h-2.1v-2.1h-2.1v-2.1h2.1v-2.1h2.1v2.1h2.1V36.8z"/>
</svg>
