<?xml version="1.0" encoding="utf-8"?>
<!-- Generator: Adobe Illustrator 22.1.0, SVG Export Plug-In . SVG Version: 6.00 Build 0)  -->
<svg version="1.0" id="Layer_1" xmlns="http://www.w3.org/2000/svg" xmlns:xlink="http://www.w3.org/1999/xlink" x="0px" y="0px"
	 viewBox="0 0 47.9 66.5" style="enable-background:new 0 0 47.9 66.5;" xml:space="preserve">
<style type="text/css">
	.st0{fill:none;}
	.st1{fill:#FFFFFF;}
	.st2{fill:#D0021B;}
</style>
<title>CSS.3</title>
<desc>Created with Sketch.</desc>
<g>
	<path class="st0" d="M30.6,46.4C30.6,46.4,30.6,46.4,30.6,46.4c-1.4,0.4-2.9,0.8-4.4,1.3c-0.8,0.2-1.5,0.4-2.3,0.8c0,0,0,0,0,0
		c0.7-0.3,1.5-0.5,2.3-0.8C27.7,47.3,29.1,46.9,30.6,46.4z"/>
	<path class="st0" d="M24,54.2c-0.2-1.9,0-3.7-0.1-5.6c-1.3-0.2-2.7-0.5-4-0.7c-1.1-0.2-2.1-0.4-3.2-0.7c-0.1-1.5-0.3-3-0.4-4.4
		c-0.3-0.1-0.6-0.1-0.9-0.1c-1.5,0-3,0-4.6,0c0.1,2.8,0.4,5.7,0.8,8.5c1.5,0.4,3,0.8,4.5,1.2c2.3,0.6,4.6,1.1,6.9,1.7
		c0.3,0.1,0.5,0.2,0.8,0.1c0.2,1.9,0,3.7,0.1,5.6c0,0,0,0,0,0c0-1.9,0.1-3.7-0.1-5.6C24,54.3,24,54.2,24,54.2
		c4.1-1,8.1-2.1,12.2-3.1c0.5-5.7,1.1-11.4,1.4-17.1c0,0,0,0-0.1,0c-0.4,5.7-0.9,11.4-1.4,17C32.1,52,28.1,53.2,24,54.2z"/>
	<path class="st0" d="M24,21c0,0.5,0,0.9,0,1.4c0,0,0,0,0,0L24,21z"/>
	<path class="st0" d="M24,39.2c-0.1-5.5,0-11-0.1-16.4c-5,0-10.1,0-15.1,0c0.1,1.7,0.3,3.4,0.6,5.1c4.7,0.2,9.4,0,14.1,0.1
		c-4.1,1.8-8.3,3.6-12.4,5.4c-0.4,0.2-0.7,0.3-1,0.5c0,1.9,0.3,3.7,0.5,5.6c2.5,0,5,0,7.5-0.1c2,0,4,0,6,0C24,39.3,24,39.3,24,39.2
		c2.3,0,4.7,0,7.1,0c0,0,0,0,0,0C28.7,39.2,26.3,39.2,24,39.2z"/>
	<path class="st0" d="M38.2,26.9c0,0.5,0,0.9-0.2,1.4c-0.3,0.2-0.7,0.4-1,0.5c-1.8,0.8-3.7,1.6-5.5,2.4c-1.9,0.9-3.8,1.6-5.7,2.6
		c0.1,0,0.3,0,0.4,0c1.7-0.9,3.5-1.6,5.3-2.4c1.8-0.8,3.7-1.6,5.5-2.4c0.4-0.2,0.7-0.3,1-0.5c0.1-0.4,0.1-0.9,0.2-1.4
		c0.1-1.4,0.3-2.9,0.4-4.3c0,0-0.1,0-0.1,0C38.4,24.1,38.3,25.5,38.2,26.9z"/>
	<path class="st1" d="M18.9,10.4c0-0.7,0-1.4,0-2.1c-1.9,0-3.8,0-5.7,0c0-1.3,0-2.5,0-3.8c1.9,0,3.8,0,5.7,0c0-0.9,0-1.7,0-2.6
		c-2.7,0-5.5,0-8.2,0c0,2.8,0,5.7,0,8.5C13.5,10.3,16.2,10.3,18.9,10.4z"/>
	<path class="st1" d="M25.3,8.3c-1.9,0-3.8,0-5.7,0c0,0.7,0,1.4,0,2c2.7,0,5.5,0,8.2,0c0-1.7,0-3.4,0-5c-2,0-4,0-5.9,0
		c0-0.3,0-0.6,0-1c2,0,4,0,6,0c0-0.8,0-1.6,0-2.5c-2.7,0-5.5,0-8.2,0c0,1.7,0,3.5,0,5.2c1.9,0,3.8,0,5.7,0
		C25.4,7.4,25.3,7.9,25.3,8.3z"/>
	<path class="st1" d="M34.6,8c-1.9,0-3.8,0-5.7,0c0,0.6,0,1.3,0,1.9c2.7,0,5.4,0,8.2,0c0-1.6,0-3.2,0-4.8c-2,0-4,0-5.9,0
		c0-0.3,0-0.6,0-1c2,0,4,0,6,0c0-0.8,0-1.6,0-2.4c-2.7,0-5.4,0-8.1,0c0,1.7,0,3.3,0,5c1.9,0,3.8,0,5.7,0C34.6,7.2,34.6,7.6,34.6,8z"
		/>
	<path class="st1" d="M24,21c0-1.2,0-2.4,0-3.5L24,21z"/>
	<path class="st1" d="M1.8,13.9v0.2c0.3,2.4,0.5,4.9,0.7,7.3C3.2,29.5,4,37.6,4.7,45.7c0.4,4.4,0.8,8.7,1.2,13.1
		c3.2,0.9,6.5,1.8,9.7,2.7c2.7,0.8,5.5,1.5,8.3,2.3h0.1c2.9-0.8,5.8-1.6,8.7-2.4c3.1-0.8,6.3-1.8,9.4-2.6c0.5-5.8,1.1-11.7,1.6-17.5
		c0.8-9.1,1.6-18.2,2.5-27.4C31.3,13.9,16.6,13.9,1.8,13.9z M38.2,27.1c0,0.5,0,0.9-0.2,1.4c-0.3,0.2-0.7,0.4-1,0.5
		c-1.8,0.8-3.7,1.6-5.5,2.4c-1.8,0.8-3.6,1.5-5.3,2.4c0.4,0,0.7,0,1.1,0c3.4,0,6.9,0,10.3,0c0,0.1,0,0.1,0,0.2c0,0,0,0,0.1,0
		c-0.4,5.7-0.9,11.4-1.4,17.1c-4,1-8.1,2.2-12.1,3.2c0,0-0.1,0-0.2,0c0.2,1.9,0,3.7,0.1,5.6c0,0,0,0,0,0c0-1.9,0.1-3.7-0.1-5.6
		c-0.3,0-0.6-0.1-0.8-0.1c-2.3-0.6-4.6-1.1-6.9-1.7c-1.5-0.4-3-0.8-4.5-1.2c-0.4-2.8-0.7-5.6-0.8-8.5c1.5,0,3,0,4.6,0
		c0.3,0,0.6,0,0.9,0.1c0.1,1.5,0.2,3,0.4,4.4c1,0.3,2.1,0.4,3.2,0.7c1.3,0.2,2.7,0.5,4,0.7c0,0,0,0,0-0.1c0,0,0,0,0,0c0,0,0,0,0,0
		c0.7-0.3,1.5-0.5,2.3-0.8c1.5-0.4,2.9-0.8,4.4-1.3c0.1-2.4,0.3-4.8,0.5-7.2c-2.4,0-7.1,0.1-7.1,0.1c-2,0-4,0-6,0
		c-2.5,0-5,0-7.5,0.1c-0.1-1.9-0.4-3.7-0.5-5.6c0.3-0.2,0.7-0.3,1-0.5c4.1-1.8,8.3-3.5,12.4-5.4c-4.7-0.1-9.4,0-14.1-0.1
		c-0.2-1.7-0.5-3.4-0.6-5.1c5,0,10.1,0,15.1,0c0-0.1,0-0.2,0-0.3c0,0,0,0,0,0c0-0.5,0-0.9,0-1.4l0-3.5c0,1.2,0,2.4,0,3.5l-0.3,1.7
		c4.9,0,9.7,0,14.6,0c0,0.1,0.2-0.1,0.2,0c0,0,0.1,0,0.1,0C38.5,24.2,38.3,25.7,38.2,27.1z"/>
	<path class="st2" d="M24,48.5C23.9,48.5,23.9,48.5,24,48.5C23.9,48.5,23.9,48.6,24,48.5C23.9,48.6,23.9,48.6,24,48.5
		C24,48.6,24,48.5,24,48.5z"/>
</g>
</svg>
