<?xml version="1.0" encoding="UTF-8"?>
<svg width="48px" height="48px" viewBox="0 0 48 48" version="1.1" xmlns="http://www.w3.org/2000/svg" xmlns:xlink="http://www.w3.org/1999/xlink">
    <!-- Generator: Sketch 51.2 (57519) - http://www.bohemiancoding.com/sketch -->
    <title>Github</title>
    <desc>Created with Sketch.</desc>
    <defs></defs>
    <g id="Gallery" stroke="none" stroke-width="1" fill="none" fill-rule="evenodd">
        <g id="Project" transform="translate(-728.000000, -1653.000000)" fill="#383838" fill-rule="nonzero">
            <g id="Group-5" transform="translate(665.000000, 1653.000000)">
                <path d="M87.0375,23.8725 L86.9625,23.8725 C83.985,23.8725 81.3625,23.115 79.81,24.5425 C78.9564813,25.3008902 78.4755063,26.3933516 78.4925,27.535 C78.4925,32.165 82.2,32.735 86.965,32.735 L87.0375,32.735 C91.8,32.735 95.51,32.1625 95.51,27.535 C95.51,26.4275 95.12,25.395 94.1925,24.5425 C92.6375,23.115 90.015,23.8725 87.0375,23.8725 Z M82.9825,30.2 C82.075,30.2 81.3425,29.18 81.3425,27.925 C81.3425,26.67 82.075,25.655 82.9825,25.655 C83.89,25.655 84.625,26.67 84.625,27.925 C84.6275,29.18 83.8925,30.2 82.9825,30.2 Z M91.015,30.2 C90.1075,30.2 89.3725,29.18 89.3725,27.925 C89.3725,26.67 90.1075,25.655 91.015,25.655 C91.92,25.655 92.655,26.67 92.655,27.925 C92.6575,29.18 91.9225,30.2 91.015,30.2 Z M87,0 C73.745,0 63,10.745 63,24 C63,37.255 73.745,48 87,48 C100.255,48 111,37.255 111,24 C111,10.745 100.255,0 87,0 Z M89.19,33.8475 C88.76,33.8475 87.905,33.8475 87,33.8525 C86.095,33.8475 85.24,33.8475 84.81,33.8475 C82.91,33.8475 75.38,33.7 75.38,24.625 C75.38,22.54 76.095,21.0125 77.2675,19.7375 C77.0825,19.2775 77.0725,16.6575 78.0675,14.1475 C78.0675,14.1475 80.3575,14.3975 83.82,16.775 C84.5425,16.5725 85.7725,16.47 87,16.47 C88.2275,16.47 89.455,16.5725 90.1825,16.7725 C93.645,14.395 95.935,14.145 95.935,14.145 C96.93,16.655 96.9225,19.2775 96.735,19.735 C97.9075,21.01 98.6225,22.5375 98.6225,24.6225 C98.62,33.7025 91.09,33.8475 89.19,33.8475 Z" id="Github"></path>
            </g>
        </g>
    </g>
</svg>