<?xml version="1.0" encoding="UTF-8"?>
<svg width="48px" height="48px" viewBox="0 0 48 48" version="1.1" xmlns="http://www.w3.org/2000/svg" xmlns:xlink="http://www.w3.org/1999/xlink">
    <!-- Generator: Sketch 51.2 (57519) - http://www.bohemiancoding.com/sketch -->
    <title>Github Popup</title>
    <desc>Created with Sketch.</desc>
    <defs></defs>
    <g id="About" stroke="none" stroke-width="1" fill="none" fill-rule="evenodd">
        <g id="About-zoom" transform="translate(-732.000000, -1700.000000)" fill="#d0021b" fill-rule="nonzero">
            <path d="M756.0375,1723.8725 L755.9625,1723.8725 C752.985,1723.8725 750.3625,1723.115 748.81,1724.5425 C747.956481,1725.30089 747.475506,1726.39335 747.4925,1727.535 C747.4925,1732.165 751.2,1732.735 755.965,1732.735 L756.0375,1732.735 C760.8,1732.735 764.51,1732.1625 764.51,1727.535 C764.51,1726.4275 764.12,1725.395 763.1925,1724.5425 C761.6375,1723.115 759.015,1723.8725 756.0375,1723.8725 Z M751.9825,1730.2 C751.075,1730.2 750.3425,1729.18 750.3425,1727.925 C750.3425,1726.67 751.075,1725.655 751.9825,1725.655 C752.89,1725.655 753.625,1726.67 753.625,1727.925 C753.6275,1729.18 752.8925,1730.2 751.9825,1730.2 Z M760.015,1730.2 C759.1075,1730.2 758.3725,1729.18 758.3725,1727.925 C758.3725,1726.67 759.1075,1725.655 760.015,1725.655 C760.92,1725.655 761.655,1726.67 761.655,1727.925 C761.6575,1729.18 760.9225,1730.2 760.015,1730.2 Z M756,1700 C742.745,1700 732,1710.745 732,1724 C732,1737.255 742.745,1748 756,1748 C769.255,1748 780,1737.255 780,1724 C780,1710.745 769.255,1700 756,1700 Z M758.19,1733.8475 C757.76,1733.8475 756.905,1733.8475 756,1733.8525 C755.095,1733.8475 754.24,1733.8475 753.81,1733.8475 C751.91,1733.8475 744.38,1733.7 744.38,1724.625 C744.38,1722.54 745.095,1721.0125 746.2675,1719.7375 C746.0825,1719.2775 746.0725,1716.6575 747.0675,1714.1475 C747.0675,1714.1475 749.3575,1714.3975 752.82,1716.775 C753.5425,1716.5725 754.7725,1716.47 756,1716.47 C757.2275,1716.47 758.455,1716.5725 759.1825,1716.7725 C762.645,1714.395 764.935,1714.145 764.935,1714.145 C765.93,1716.655 765.9225,1719.2775 765.735,1719.735 C766.9075,1721.01 767.6225,1722.5375 767.6225,1724.6225 C767.62,1733.7025 760.09,1733.8475 758.19,1733.8475 Z" id="Github-Popup" transform="translate(756.000000, 1724.000000) rotate(-360.000000) translate(-756.000000, -1724.000000) "></path>
        </g>
    </g>
</svg>