<?xml version="1.0" encoding="utf-8"?>
<!-- Generator: Adobe Illustrator 22.1.0, SVG Export Plug-In . SVG Version: 6.00 Build 0)  -->
<svg version="1.0" id="Layer_1" xmlns="http://www.w3.org/2000/svg" xmlns:xlink="http://www.w3.org/1999/xlink" x="0px" y="0px"
	 viewBox="0 0 49.3 66.4" style="enable-background:new 0 0 49.3 66.4;" xml:space="preserve">
<style type="text/css">
	.st0{fill:#FFFFFF;}
</style>
<g>
	<path class="st0" d="M10.5,13.1c0.3-0.4,0.7-0.9,1.3-1.4c-0.2-0.6-0.7-2-1.7-2.8C9.4,8.3,8.6,8,7.7,8C7.8,8.1,7.9,8.3,8,8.4
		c0.4,0.7,0.5,1.5,0.6,2.2c0.1,0.8,0.1,1.6,0.5,2.1C9.6,12.9,10.1,13,10.5,13.1z"/>
	<path class="st0" d="M37.4,11.7c0.6,0.5,1,1,1.3,1.4c0.4-0.1,0.9-0.2,1.4-0.3c0.4-0.6,0.5-1.3,0.5-2.1c0.1-0.8,0.1-1.6,0.6-2.2
		c0.1-0.1,0.2-0.3,0.3-0.4c-0.9,0-1.8,0.3-2.5,0.9C38.1,9.7,37.6,11.1,37.4,11.7z"/>
	<path class="st0" d="M13.6,10.5c0.3-0.2,0.6-0.3,0.9-0.5c0.2-0.1,0.4-0.2,0.6-0.3c-0.8-1.1-2.5-3.3-4.7-4C9.6,5.5,8.9,5.4,8.1,5.4
		C6.7,5.4,5.6,5.7,5,6c0.4,0.2,0.8,0.4,1.2,0.7c0.3-0.1,0.7-0.1,1.2-0.1C8.7,6.6,9.9,7,11,7.7C12.5,8.8,13.3,9.8,13.6,10.5z"/>
	<path class="st0" d="M35.7,10.5c0.3-0.7,1-1.7,2.6-2.8c1-0.7,2.3-1.1,3.6-1.1c0.5,0,0.9,0,1.2,0.1c0.4-0.3,0.8-0.5,1.2-0.7
		c-0.6-0.3-1.7-0.6-3.1-0.6c-0.8,0-1.5,0.1-2.2,0.3c-2.2,0.7-4,2.9-4.7,4c0.2,0.1,0.4,0.2,0.6,0.3C35.1,10.2,35.4,10.3,35.7,10.5z"
		/>
	<path class="st0" d="M36.4,51.4c0.1,0.1,0.1,0.1,0.2,0.2v0c0.9,1,1.1,2.3,0.5,4c0.9,0,1.8-0.1,2.6-0.4c0.1-0.4,0.2-0.7,0.2-0.8h1.7
		c1.1-0.6,2.1-1.5,2.8-2.6c1.5-2.5,1.1-6.8,0.5-7.4c-1.4,4.3-5.9,5.6-9.4,5.7C35.9,50.7,36.2,51.1,36.4,51.4z"/>
	<path class="st0" d="M44.4,41.1C44.4,41.1,44.4,41.1,44.4,41.1C44.4,41.1,44.4,41.1,44.4,41.1C44.4,41.1,44.4,41.1,44.4,41.1z"/>
	<path class="st0" d="M35.3,55.5c0.5-1.3,0.4-2.3-0.1-2.9c-0.4-0.4-1.2-0.9-3.1-0.9l-2,0c-1.5,0-3.3,0-5.5,0c-2.2,0-4,0-5.5,0l-2,0
		c-1.9,0-2.7,0.5-3.1,0.9c-0.5,0.6-0.6,1.6-0.1,2.9c0.8,2.4,3.1,8.1,10.7,8.1C32.2,63.6,34.5,57.9,35.3,55.5L35.3,55.5z M21.8,54.8
		c-0.1,0.3-0.7,1.4-1.6,2.4c-0.3,0.4-0.8,0.6-1.4,0.6v0c-0.5,0-1.1-0.2-1.5-0.5C17,57,16,56.1,15.6,55c-0.2-0.4-0.1-0.8,0.1-1
		c0.2-0.2,0.5-0.4,1.2-0.4l0.5,0c0.6,0,1.6,0,2.4,0h0.8c0.5,0,0.9,0.1,1.1,0.3C22,54.2,21.9,54.6,21.8,54.8z M33.7,55
		c-0.4,1.1-1.4,2-1.7,2.3c-0.4,0.3-0.9,0.5-1.5,0.5c-0.6,0-1-0.2-1.4-0.6l0,0c-0.9-1-1.5-2.1-1.6-2.4c-0.1-0.2-0.2-0.6,0.1-0.8
		c0.2-0.2,0.6-0.3,1.1-0.3h0.8c0.8,0,1.8,0,2.4,0l0.5,0c0.7,0,1,0.2,1.2,0.4C33.8,54.2,33.8,54.6,33.7,55z"/>
	<path class="st0" d="M4.9,41.1C4.9,41.1,4.9,41.1,4.9,41.1C4.9,41.1,4.9,41.1,4.9,41.1C4.9,41.1,4.9,41.1,4.9,41.1z"/>
	<path class="st0" d="M10.6,57.3c0.8,1.2,2.1,2.5,3.9,3.2c-0.6-0.9-1.1-1.9-1.5-2.9C12.1,57.6,11.4,57.5,10.6,57.3z"/>
	<path class="st0" d="M34.8,60.6c1.8-0.7,3.1-2,3.9-3.2c-0.8,0.1-1.5,0.2-2.3,0.3C35.9,58.7,35.4,59.6,34.8,60.6z"/>
	<polygon class="st0" points="17.4,29.2 17.4,29.2 17.4,29.2 	"/>
	<path class="st0" d="M36.6,29c1.3-1,1.3-3.3,0.9-4.5c-2.5,1.4-4.7,3.2-5.7,4.7v0c0,0,0,0,0,0C32.6,29.6,34.6,30.5,36.6,29z"/>
	<path class="st0" d="M12.6,29c2,1.5,4.1,0.6,4.8,0.2c0,0,0,0,0,0h0c-0.9-1.4-3.2-3.3-5.7-4.7C11.4,25.7,11.3,28,12.6,29z"/>
	<path class="st0" d="M9.8,47.5c1.6,0.6,3.4,0.8,5,0.9c0.3-0.5,0.5-1.1,0.7-1.7v0c0.1-0.2,2.5-6.4,3.3-7.8c-0.7,4.9-2.2,9.3-3,11.3
		c0.4-0.1,0.9-0.1,1.5-0.1c0,0,5.2,0,7.3,0h0l7.3,0c0.6,0,1,0,1.5,0.1c-0.8-2-2.3-6.4-3-11.3c0.9,1.4,3.2,7.6,3.3,7.8l0,0
		c0.2,0.6,0.4,1.1,0.7,1.7c1.6,0,3.4-0.2,5-0.9c-0.3-3.3-0.5-7.7-0.4-9.5c0.1-2.2,1.3-3.7,2.4-4.3c0.3-0.2,0.7-0.4,1.1-0.6
		c1.9-1,3.8-2.1,3.8-3.8c0-1.4-0.5-1.8-1.1-2.3l-0.1-0.1c-0.1-0.1-0.2-0.1-0.3-0.2c0.1,0.9,0.2,1.7,0.3,1.9c0,0-1.5-1.9-2-5.6
		c-0.2-1.5,0.1-4.3,0.6-5.4c0,0.6,0,1.2,0,1.8c0-0.1,0.1-0.2,0.2-0.3c0.4-0.5,1.5-2.2,1.2-3.3c-0.1-0.4-0.4-0.8-0.8-1
		c-0.5-0.2-1.1-0.4-1.9-0.4c-1.5,0-3.3,0.5-4.1,0.7c-3.2,1-7,3.9-8.1,4.7c0,0,0,0-0.1,0l-0.7,0.5l0.4-0.7c0,0,2.4-3.9,6.7-5.9
		c-0.3-0.4-0.9-1-2.7-1.9c-2.7-1.3-5.8-2-9.3-2c-3.5,0-6.7,0.7-9.4,2c-1.8,0.9-2.5,1.5-2.7,1.9c4.3,1.9,6.7,5.8,6.7,5.9l0.4,0.7
		L19,19.9c0,0,0,0-0.1,0c-1.1-0.9-4.9-3.7-8.1-4.7c-0.9-0.3-2.6-0.7-4.1-0.7c-0.8,0-1.4,0.1-1.9,0.4c-0.4,0.2-0.7,0.6-0.8,1
		c-0.3,1.1,0.8,2.8,1.2,3.3c0.1,0.1,0.1,0.2,0.2,0.3c0-0.6,0.1-1.2,0-1.8c0.5,1.1,0.8,4,0.6,5.4c-0.5,3.7-2,5.6-2,5.6
		c0.1-0.2,0.2-1,0.3-1.9c-0.1,0.1-0.2,0.2-0.3,0.2L4,27c-0.6,0.5-1.1,0.9-1.1,2.3c0,1.8,1.9,2.8,3.8,3.8c0.4,0.2,0.7,0.4,1.1,0.6
		c1.1,0.6,2.3,2.1,2.4,4.3C10.3,39.8,10.1,44.3,9.8,47.5z M31.4,26.8c1.2-1.4,5.1-5.3,10.5-4c-0.5,0.1-1.1,0.3-1.7,0.5c0,0,0,0,0,0
		c0.5,0.2,0.8,0.9,0.9,1.5c0.1,1.3-0.7,2.4-0.7,2.4c-0.1-0.9-0.3-1.6-0.5-2.1c-0.1,1.3-0.4,3-1.6,4.3c-0.9,1-4.5,2.9-6.9,0.8
		c-0.1,0.3-0.3,0.7-0.4,1.1c-0.4,1.3,0.3,3.2,0.3,3.2s-1.9-2.1-1.7-4.1c-1.4-0.1-2.7-1.1-2.7-2.5C27,27.9,29.3,29.2,31.4,26.8z
		 M24.6,23.4c1.1,0,2.2-0.3,3.4-1c0,0-1.8,2.2-3.4,2.2v0c0,0,0,0,0,0c0,0,0,0,0,0v0c-1.6,0-3.4-2.2-3.4-2.2
		C22.4,23.1,23.6,23.4,24.6,23.4z M8.8,27.2L8.8,27.2L8.8,27.2c0,0-0.8-1.1-0.7-2.4c0.1-0.6,0.4-1.3,0.9-1.5c0,0,0,0,0,0
		c-0.6-0.2-1.2-0.4-1.7-0.5c5.3-1.3,9.2,2.6,10.5,4c2.1,2.4,4.5,1.1,4.5,1.1c0,1.4-1.3,2.4-2.7,2.5c0.1,1.9-1.7,4.1-1.7,4.1
		s0.7-1.9,0.3-3.2c-0.1-0.4-0.2-0.8-0.4-1.1c-2.4,2.2-6,0.2-6.9-0.8c-1.2-1.3-1.6-3-1.6-4.3C9.1,25.6,8.9,26.3,8.8,27.2z"/>
	<path class="st0" d="M4.8,51.9c0.7,1.1,1.7,2,2.8,2.6l1.7,0l-0.9,0h0.9c0,0.1,0.1,0.4,0.2,0.8c0.9,0.2,1.8,0.4,2.6,0.4
		c-0.6-1.7-0.4-3,0.5-4c0.1-0.1,0.1-0.1,0.2-0.2c0.2-0.3,0.5-0.7,0.9-1.3c-3.4-0.1-8-1.4-9.4-5.7C3.7,45.1,3.3,49.4,4.8,51.9z"/>
	<g>
		<path class="st0" d="M24.6,65.7C24.6,65.7,24.6,65.7,24.6,65.7C24.6,65.7,24.6,65.7,24.6,65.7c-3.4,0-6.1-0.8-8.1-2.5
			c-2.2-0.2-4.1-1.1-5.7-2.5c-1.5-1.3-2.4-2.8-2.9-3.8c-1.6-0.6-2.9-1.4-3.8-2.5C3,53.2,2.3,51.7,2,49.8c-0.3-1.4-0.3-2.8-0.1-4.1
			c0.2-1,0.5-2,1-2.9c0.8-1.5,1.7-2.2,1.8-2.3c0.1-0.1,0.2-0.1,0.3,0c0.1,0,0.2,0.1,0.2,0.2c0,0.1,0,0.1,0,0.2c0,0,0,0,0,0
			c0.3,1.7,1.2,3.4,2.5,4.7C8,43,8.1,39.4,8.1,38.5c0-0.9-0.3-1.7-0.6-2.1c-0.3-0.5-0.7-0.8-0.8-0.9c-0.3-0.2-0.6-0.3-0.9-0.5
			l-0.1-0.1c-1.1-0.6-2.4-1.3-3.4-2.2c-1.2-1.1-1.8-2.2-1.8-3.6c0-1,0.2-1.8,0.7-2.5c0.4-0.6,0.9-1,1.3-1.3l0,0
			c0.1-0.1,0.2-0.1,0.2-0.2c0.2-0.2,0.4-0.3,0.5-0.4c0.5-1.2,0.4-4.1,0.2-4.5c-0.2-0.3-2.2-2.8-1.5-5.2c0.3-1,0.9-1.8,1.9-2.3
			c0.6-0.3,1.4-0.5,2.3-0.6c0-0.2,0.1-0.3,0.1-0.5l0,0c0.1-0.3,0.1-0.6,0.1-0.9c0-0.5-0.1-1.1-0.2-1.3C5.2,8,2.8,7.5,2.7,7.5
			L1.2,7.2C1.1,7.1,1,7.1,0.9,7c0-0.1,0-0.2,0.1-0.3l1-1.2l0,0c0,0,0.6-0.6,1.6-1.2c0.9-0.5,2.5-1.1,4.4-1.1c1,0,2.1,0.2,3.1,0.5
			c1.4,0.4,2.7,1.3,4,2.5c1,0.9,1.8,1.8,2.2,2.4c0.1,0,0.2-0.1,0.3-0.1c0-1.4,0.5-2.9,1.4-4.2c0.8-1.1,1.8-1.9,2.4-2
			c0.1,0,0.2,0,0.2,0.1c0.1,0.1,0.1,0.1,0.1,0.2c0,0.1,0,0.2,0,0.4c0,0.6,0.1,1.7,0.4,2.4c0.2-0.9,0.6-1.6,1.1-2.3
			c0.9-1,2.1-1.8,3.9-2.5c0.1,0,0.2,0,0.3,0.1c0.1,0.1,0.1,0.2,0.1,0.3c-0.6,1.7-0.2,3.2,0.1,4.1c2.4-2.1,4.1-1.7,4.2-1.7
			c0.1,0,0.2,0.1,0.2,0.2c0,0.1,0,0.2,0,0.3c0,0-1.5,2.6-1.1,4.4c0.3,0.1,0.6,0.2,0.8,0.2c1-1.3,3.3-3.9,6.2-4.9
			c1-0.3,2.1-0.5,3.1-0.5c3.8,0,6,2.2,6,2.3l0,0l1,1.2c0.1,0.1,0.1,0.2,0.1,0.3c0,0.1-0.1,0.2-0.2,0.2l-1.5,0.3
			c-0.1,0-2.5,0.5-3.5,2.1c-0.1,0.2-0.2,0.8-0.2,1.3l0,0c0,0.3,0,0.6,0.1,0.9c0,0.2,0.1,0.3,0.1,0.5c0.9,0.1,1.7,0.3,2.3,0.6
			c1,0.5,1.6,1.3,1.9,2.3c0.3,1,0.1,2.2-0.5,3.5c-0.4,0.9-0.9,1.5-1,1.7c-0.2,0.4-0.3,3.3,0.2,4.5c0,0.1,0.3,0.3,0.5,0.4
			c0.1,0.1,0.2,0.1,0.3,0.2c0.4,0.3,0.9,0.7,1.3,1.3c0.5,0.7,0.7,1.5,0.7,2.5c0,1.3-0.6,2.5-1.8,3.6c-1,0.9-2.3,1.6-3.4,2.2L43.5,35
			c-0.3,0.2-0.6,0.3-0.9,0.5c0,0,0,0,0,0c-0.1,0.1-0.5,0.4-0.8,0.9c-0.3,0.5-0.6,1.2-0.6,2.1c0,0.8,0.1,4.4,0.4,7.2
			c1.3-1.3,2.2-3,2.5-4.7l0,0c0-0.1,0-0.1,0-0.2c0-0.1,0.1-0.2,0.2-0.2c0.1,0,0.2,0,0.3,0c0,0,1,0.8,1.8,2.3c0.5,0.9,0.8,1.8,1,2.9
			c0.2,1.3,0.2,2.6-0.1,4.1c-0.3,1.8-1,3.4-2.2,4.6c-1,1.1-2.3,1.9-3.8,2.5c-0.5,1.1-1.4,2.5-2.9,3.8c-1.6,1.4-3.5,2.2-5.7,2.5
			C30.7,64.9,28,65.7,24.6,65.7C24.7,65.7,24.6,65.7,24.6,65.7z M24.6,65.1C24.6,65.1,24.6,65.1,24.6,65.1c3.3,0,5.9-0.8,7.8-2.4
			c0,0,0.1-0.1,0.2-0.1c2.1-0.2,3.9-1,5.4-2.3c1.5-1.3,2.3-2.7,2.8-3.7c0-0.1,0.1-0.1,0.2-0.2c1.5-0.6,2.8-1.4,3.7-2.4
			c1-1.1,1.7-2.6,2-4.3c0.2-1.3,0.3-2.6,0.1-3.8c-0.2-1-0.5-1.9-0.9-2.7c-0.4-0.8-0.9-1.4-1.3-1.8c-0.4,1.9-1.5,3.8-3.1,5.1
			c-0.1,0.1-0.2,0.1-0.3,0.1c-0.1,0-0.2-0.1-0.2-0.2c-0.4-2.9-0.5-7-0.5-7.9c0-1.1,0.4-1.9,0.7-2.4c0.3-0.6,0.8-1,1-1.1c0,0,0,0,0,0
			c0.3-0.2,0.6-0.3,0.9-0.5l0.1-0.1c1.1-0.6,2.4-1.3,3.3-2.1c1.1-1,1.6-2,1.6-3.1c0-1.9-1.1-2.7-1.8-3.3c-0.1-0.1-0.2-0.1-0.3-0.2
			c-0.3-0.2-0.5-0.4-0.6-0.7c-0.3-0.8-0.4-2.1-0.4-2.8c0-0.7,0-1.9,0.2-2.2c0,0,0,0,0,0c0,0,0.5-0.6,1-1.6c0.4-0.8,0.8-2,0.5-3.1
			c-0.2-0.9-0.8-1.5-1.6-2c-0.6-0.3-1.4-0.5-2.3-0.5c-0.2,0-0.3-0.1-0.3-0.3c0-0.2-0.1-0.4-0.1-0.7c-0.1-0.3-0.2-0.7-0.1-1.1l0,0
			c0.1-0.6,0.1-1.2,0.3-1.5c1.1-1.8,3.7-2.3,3.8-2.4c0,0,0,0,0,0l1-0.2l-0.7-0.8c0,0-0.6-0.6-1.5-1.1c-1.3-0.7-2.6-1-4.1-1
			c-1,0-2,0.2-2.9,0.5c-1.3,0.4-2.6,1.2-3.8,2.4c-1.1,1-1.9,2-2.2,2.5c-0.1,0.1-0.2,0.1-0.3,0.1c-0.4-0.1-0.8-0.2-1.2-0.3
			c-0.1,0-0.2-0.1-0.2-0.2C30,7,30.9,4.9,31.4,4c-0.2,0-0.4,0-0.7,0.1c-0.6,0.2-1.7,0.6-2.9,1.7c-0.1,0.1-0.2,0.1-0.3,0.1
			c-0.1,0-0.2-0.1-0.2-0.2c-0.3-0.7-0.9-2.3-0.4-4.3c-1.4,0.5-2.4,1.2-3,2.1c-0.6,0.7-0.9,1.6-1.1,2.6c0,0.1-0.1,0.2-0.2,0.2
			c-0.1,0-0.2,0-0.3,0c-0.9-0.7-1-2.4-1-3.3c-0.4,0.2-1.1,0.8-1.7,1.6c-0.5,0.7-1.4,2.2-1.3,4.1c0,0.1-0.1,0.3-0.2,0.3
			c-0.2,0.1-0.5,0.1-0.7,0.2c-0.1,0-0.3,0-0.3-0.1c-0.4-0.5-1.2-1.5-2.2-2.5c-1.3-1.2-2.6-1.9-3.8-2.4c-1-0.3-2-0.5-2.9-0.5
			c-1.4,0-2.8,0.3-4.1,1C3,5.3,2.5,5.8,2.5,5.9L1.8,6.7l1,0.2c0,0,0,0,0,0c0.1,0,2.7,0.6,3.8,2.4c0.2,0.3,0.3,0.9,0.3,1.5
			c0,0.4,0,0.8-0.1,1.1l0,0c-0.1,0.2-0.1,0.5-0.1,0.7c0,0.2-0.1,0.3-0.3,0.3c-0.9,0-1.7,0.2-2.3,0.5c-0.8,0.4-1.4,1.1-1.6,2
			C2.4,16,2.3,17,3,18.4c0.4,0.9,1,1.6,1,1.6c0,0,0,0,0,0c0.2,0.4,0.2,1.6,0.2,2.2c0,0.7-0.1,2-0.4,2.8c-0.1,0.2-0.3,0.4-0.6,0.7
			c-0.1,0.1-0.2,0.1-0.2,0.2l0,0C2.1,26.5,1,27.3,1,29.2c0,1.1,0.5,2.2,1.6,3.1c1,0.9,2.2,1.5,3.3,2.1c0,0,0,0,0,0l0.1,0.1
			C6.4,34.7,6.7,34.8,7,35c0.2,0.1,0.7,0.5,1,1.1c0.3,0.5,0.7,1.4,0.7,2.4c0,0.9-0.1,5-0.5,7.9c0,0.1-0.1,0.2-0.2,0.2
			c-0.1,0-0.2,0-0.3-0.1c-1.6-1.3-2.7-3.2-3.1-5.1c-0.3,0.3-0.8,0.9-1.3,1.8C3,44.1,2.7,45,2.5,45.9c-0.2,1.2-0.2,2.5,0.1,3.8
			c0.3,1.7,1,3.1,2,4.3c0.9,1,2.2,1.8,3.7,2.4c0.1,0,0.1,0.1,0.2,0.2c0.5,1,1.3,2.5,2.8,3.7c1.5,1.3,3.4,2.1,5.4,2.3
			c0.1,0,0.1,0,0.2,0.1C18.8,64.3,21.3,65.1,24.6,65.1C24.6,65.1,24.6,65.1,24.6,65.1z M46.8,5.9C46.8,5.9,46.8,5.9,46.8,5.9
			L46.8,5.9C46.8,5.9,46.8,5.9,46.8,5.9z M2.5,5.9C2.5,5.9,2.5,5.9,2.5,5.9L2.5,5.9C2.5,5.9,2.5,5.9,2.5,5.9z"/>
	</g>
</g>
</svg>
