<?xml version="1.0" encoding="utf-8"?>
<!-- Generator: Adobe Illustrator 22.1.0, SVG Export Plug-In . SVG Version: 6.00 Build 0)  -->
<svg version="1.0" id="Layer_1" xmlns="http://www.w3.org/2000/svg" xmlns:xlink="http://www.w3.org/1999/xlink" x="0px" y="0px"
	 viewBox="0 0 46 101.7" style="enable-background:new 0 0 46 101.7;" xml:space="preserve">
<style type="text/css">
	.st0{fill:#FFFFFF;}
</style>
<g>
	<path class="st0" d="M31.7,25.8l1.8-7.2l10-10.6l-2.6-2.3L30.3,17.1l-2.1,8.6c-1.6-0.1-3.2-0.1-4.8-0.1c-11.2,0-20.3,1.3-20.3,2.8
		c0,1.6,9.1,2.8,20.3,2.8c11.2,0,20.3-1.3,20.3-2.8C43.7,27.3,38.8,26.3,31.7,25.8z M30.6,29.9c0,0-0.4,0.1-1.5,0.1
		c-1.2,0-2,0-2.3-0.3c-0.1-0.1-0.1-0.2-0.1-0.3c0-0.2,0.1-0.3,0.3-0.4l0.2,0.3c-0.1,0-0.1,0.1-0.1,0.1c0,0.2,1.2,0.3,2.1,0.3
		c0.9,0,2-0.1,2-0.2c0,0-0.1-0.1-0.2-0.1l0.2-0.3c0.2,0.1,0.4,0.2,0.4,0.5C31.5,29.7,31,29.8,30.6,29.9z"/>
	<path class="st0" d="M8.7,74.6l2.7,4.4l0.9,14c0,1.5,4.9,2.7,11,2.7c6.1,0,11-1.2,11-2.7l0.9-14.4l2.4-4.1c0,0-5.4,2.2-14.5,2.2
		C14.1,76.8,8.7,74.6,8.7,74.6z"/>
</g>
<path class="st0" d="M43.5,8.1c0.3-0.3-0.1-1-0.9-1.7c-0.7-0.6-1.5-0.9-1.8-0.6c-0.3,0.3,0.1,1,0.9,1.7C42.5,8.2,43.3,8.4,43.5,8.1
	 M33.9,57.9c-0.2-2.3,5-5.6,3.7-5.7c-2.9,0.2-4.3,3.4-5.8,6.8c-0.5,1.2-2.4,6.5-3.6,5.9c-1.2-0.7,1.6-5,2.3-7.6
	c-0.9,0.7-4.2,3.2-5,0.8c-1.4,1.1-4.2,1.8-3.9-1.2c-0.7,1.3-2.3,3.1-4.3,2.3c-2.5-1,1.5-9.1,2.5-8.7c1,0.4-0.2,2.3-0.5,3
	c-0.7,1.6-1.5,3.6-1,4c0.9,0.7,3.4-2.6,3.5-2.7c0.5-0.6,1.8-4.6,2.9-4.2c1.1,0.5-2.7,5.8-1.3,6.8c0.3,0.2,1.4-0.1,2.1-0.9
	c0.5-0.5,0.3-1.6,1.8-5.2c1.5-3.6,2.9-8.1,3.9-7.8c1,0.3,0.2,2.6-0.2,3.5c-1.7,4-4.8,10.7-3.3,10.2c1.4-0.5,2.2-0.5,3.6-2.2
	c1.4-1.6,1.3-4.3,2.3-4.3c0.9,0.1,0.8,0.9,0.5,1.6c0.9-1,4.3-3.3,5.2-1.1c1,2.6-4.9,6.3-3.4,6.1c1.4-0.2,3.7-1.7,4.7-3L43.3,30
	c0,0-2.7,2.3-20.1,2.3c-17.4,0-19.9-2.2-19.9-2.2l2.3,22.3c1.2-3.5,4.1-10.6,8.7-10.3c2.1,0.1,4.9,4.1,2.5,4.3c-1,0.1-1.1-2-2.3-2.3
	c-0.9-0.2-2.1,0.5-2.8,1.2c-1.6,1.5-4.9,7.5-4.5,10.5c0.6,3.8,5.3-1.3,6.1-2.8c0.6-1.1,0.9-4.3,2.2-3.9c1.2,0.3-0.1,3.6-1,6.5
	c-1,3.3-1.5,6.7-2.8,6.3c-1.2-0.4,0.8-4.6,0.7-5.3c-1.2,1.1-3.3,3.8-6.1,2.5l1.4,13.9c0,0,3.8,3,15.3,3s15.5-3,15.5-3l1.8-16
	C38.9,58.2,34.2,60.7,33.9,57.9"/>
</svg>
