<?xml version="1.0" encoding="utf-8"?>
<!-- Generator: Adobe Illustrator 22.1.0, SVG Export Plug-In . SVG Version: 6.00 Build 0)  -->
<svg version="1.0" id="Layer_1" xmlns="http://www.w3.org/2000/svg" xmlns:xlink="http://www.w3.org/1999/xlink" x="0px" y="0px"
	 viewBox="0 0 48.1 65.3" style="enable-background:new 0 0 48.1 65.3;" xml:space="preserve">
<style type="text/css">
	.st0{fill:#FFFFFF;}
</style>
<title>HTML5</title>
<desc>Created with Sketch.</desc>
<g>
	<path class="st0" d="M2.1,13.5l4,44.8l17.9,5l18-5l4-44.8C46,13.5,2.1,13.5,2.1,13.5z M37.6,24l-0.3,2.8l-0.1,1.3H24l0,0h-7.8
		l0.5,5.7H24l0,0h11.3h1.5l-0.1,1.5l-1.3,14.5l-0.1,0.9l-11.2,3.1l0,0l0,0l-11.2-3.1L12.2,42h5.5l0.4,4.4l6.2,1.6l0,0l0,0l6.2-1.6
		l0.6-7.2h-6.8l0,0H11.7l-1.4-15.1l-0.1-1.5h13.7l0,0h13.7V24z"/>
	<polygon class="st0" points="27.2,5.4 29,8.4 29.2,8.4 31.1,5.4 31.1,9.6 33.8,9.6 33.8,1.3 30.9,1.3 29.2,4.2 27.4,1.3 24.4,1.3 
		24.4,9.6 27.2,9.6 	"/>
	<polygon class="st0" points="42,6.8 38,6.8 38,1.3 35.2,1.3 35.2,9.6 42,9.6 	"/>
	<polygon class="st0" points="18,9.6 20.7,9.6 20.7,4 23.3,4 23.3,1.3 15.5,1.3 15.5,4 18,4 	"/>
	<polygon class="st0" points="8.9,6.8 11.6,6.8 11.6,9.6 14.3,9.6 14.3,1.3 11.6,1.3 11.6,4 8.9,4 8.9,1.3 6.2,1.3 6.2,9.6 8.9,9.6 
			"/>
</g>
</svg>
