<?xml version="1.0" encoding="utf-8"?>
<!-- Generator: Adobe Illustrator 22.1.0, SVG Export Plug-In . SVG Version: 6.00 Build 0)  -->
<svg version="1.0" id="Layer_1" xmlns="http://www.w3.org/2000/svg" xmlns:xlink="http://www.w3.org/1999/xlink" x="0px" y="0px"
	 viewBox="0 0 58 108" style="enable-background:new 0 0 58 108;" xml:space="preserve">
<style type="text/css">
	.st0{fill:#FFFFFF;}
</style>
<path class="st0" d="M36.3,2.6c1.6,1.8,2.1,4.5,1.7,6.8c-0.5,2.7-2,5-3.7,7c-1.4,1.6-3,3.1-4.6,4.4c-1.9,1.6-3.8,3.2-5.1,5.4
	c-1,1.8-1.3,4-0.6,5.9c1.1,3.3,3.8,5.8,5.3,8.9c-1.6-1.4-3.2-2.9-4.7-4.5s-3-3.4-4-5.4c-0.7-1.4-0.9-3.1-0.4-4.6
	c0.5-1.6,1.6-2.8,2.7-4c3.1-3.1,6.9-5.4,10-8.5c1.7-1.7,3.1-3.8,3.5-6.2C36.9,6.1,36.7,4.3,36.3,2.6L36.3,2.6z"/>
<path class="st0" d="M33.8,22.1c3.3-2.4,7.2-4,11.1-5.1c-3.1,2-6.4,3.8-9.1,6.4c-1,0.9-1.9,2-2.3,3.3c-0.3,1-0.2,2.1,0.2,3
	c0.7,1.6,1.9,3,2.9,4.5c0.8,1.3,0.9,2.9,0.3,4.3c-0.9,2-2.7,3.5-4.5,4.7c-0.2,0.1-0.4,0.4-0.7,0.4c1.2-1.1,2.2-2.7,2.2-4.4
	c0-1.3-0.7-2.4-1.6-3.3c-1.7-2-3.1-4.6-2.8-7.3C29.7,25.9,31.7,23.7,33.8,22.1L33.8,22.1z"/>
<path class="st0" d="M45.6,41.9c0.7-0.9,1.9-1.1,2.9-1.2c1.8-0.2,3.8,0.2,5.1,1.5c1.1,1,1.8,2.6,1.5,4.1c-0.3,1.8-1.4,3.2-2.8,4.3
	c-2.4,1.9-5.4,3.1-8.4,3.8c0.2-0.2,0.4-0.4,0.6-0.5c2.3-1.2,4.5-2.6,6.2-4.6c1-1.2,1.8-2.8,1.5-4.5c-0.3-1.9-2.2-3.3-4-3.4
	C47.3,41.4,46.4,41.8,45.6,41.9L45.6,41.9z"/>
<path class="st0" d="M11.2,43.5c3.2-1.4,6.6-2.2,10-2.2c-2,0.6-4.1,1.1-5.9,2c-0.4,0.2-1,0.5-1.2,0.9c-0.1,0.4,0.2,0.6,0.5,0.7
	c1.2,0.5,2.4,0.5,3.7,0.7c4.4,0.3,8.8,0.1,13.2-0.2c4.3-0.3,8.6-0.9,12.9-1.5c-0.9,0.4-1.9,0.9-2.8,1.5c-0.4,0.3-1,0.4-1.5,0.5
	c-5.2,1.2-10.6,1.5-16,1.6c-2.1,0-4.1,0-6.2-0.2c-2.3-0.2-4.6-0.3-6.9-0.9c-0.7-0.2-1.3-0.4-1.8-0.9c-0.3-0.2-0.3-0.6,0-0.9
	C9.7,44.1,10.5,43.8,11.2,43.5L11.2,43.5z"/>
<path class="st0" d="M15.2,50.8c0.9-0.7,2-1.1,3-1.5c-0.3,0.4-0.8,0.8-0.9,1.4c0,0.4,0.3,0.6,0.6,0.8c0.6,0.3,1.2,0.4,1.8,0.5
	c3.3,0.3,6.6,0.5,9.9,0.3c3-0.2,6-0.7,9-1.2c0.8,0.8,1.8,1.3,2.8,1.8c-3.6,1.1-7.3,1.7-11.1,2c-3.5,0.2-7.1,0.2-10.6-0.3
	c-1.4-0.3-2.8-0.5-4.1-1.2c-0.5-0.3-1.1-0.6-1.3-1.2C14.4,51.5,14.8,51.1,15.2,50.8L15.2,50.8z"/>
<path class="st0" d="M17.2,58.3c0.8-0.6,1.8-1,2.7-1.2c-0.3,0.3-0.9,0.7-0.6,1.1c0.5,0.6,1.3,0.7,2,0.8c2.9,0.4,5.8,0.6,8.7,0.4
	c2.2-0.1,4.3-0.5,6.5-0.9c1.2,0.7,2.5,1.3,3.8,1.9c-2,0.9-4.2,1.5-6.4,1.9c-3.7,0.7-7.4,0.7-11.1,0.2c-1.6-0.3-3.3-0.7-4.8-1.5
	c-0.6-0.3-1.2-0.7-1.4-1.3C16.5,59.1,16.8,58.6,17.2,58.3L17.2,58.3z"/>
<path class="st0" d="M7.7,63.1c1.6-0.5,3.2-1,4.9-1c0.7,0,1.4,0,1.9,0.4c-2,0.1-4,0.6-5.8,1.5c-0.4,0.2-0.8,0.5-1,0.9
	c0,0.5,0.6,0.7,1,0.9c2.5,0.9,5.1,1.2,7.7,1.5c7.8,0.7,15.6,0.5,23.3-0.2c2.9-0.3,5.9-0.7,8.7-1.5c0.9-0.3,1.9-0.6,2.5-1.4
	c0.4-0.5,0.1-1.1-0.2-1.5c0.6,0.3,1.4,0.7,1.3,1.5c-0.2,0.8-1.1,1.2-1.7,1.6c-2.2,1.1-4.6,1.7-7,2.2c-7,1.4-14.1,1.7-21.2,1.5
	c-5.3-0.2-10.7-0.7-16-1.6c-0.9-0.2-2-0.4-2.7-1.1c-0.4-0.5-0.1-1.2,0.4-1.6C4.9,64.2,6.3,63.6,7.7,63.1L7.7,63.1z"/>
<path class="st0" d="M50.4,69c1.7-0.6,3.6-1.2,4.9-2.6c-0.2,1.5-1.5,2.5-2.8,3.2c-2.4,1.3-5.2,1.8-7.9,2.3c-5.7,0.9-11.5,1.1-17.3,1
	c-4-0.1-7.9-0.3-11.8-1.1c-0.9-0.3-1.9-0.4-2.7-1c3.5,0.6,7,0.8,10.5,1c5.8,0.2,11.6-0.1,17.3-0.8C43.8,70.6,47.1,70,50.4,69
	L50.4,69z"/>
<path class="st0" d="M5.2,94.4c0-5.6,0-11.2,0-16.9c1.2,0,2.3,0,3.5,0c0,6.3,0,12.6,0,18.9c0,1.8-0.1,3.6-0.9,5.2
	c-0.9,1.7-2.6,2.9-4.4,3.5c-0.6-0.6-1.1-1.3-1.6-1.9l0,0c1.4-0.8,2.9-2,3.2-3.8C5.3,97.8,5.2,96.1,5.2,94.4L5.2,94.4z"/>
<path class="st0" d="M12,84.3c2.3-1,4.9-1.5,7.4-1.2c1.3,0.2,2.7,0.6,3.5,1.7c0.7,0.9,1,2,0.9,3.2c0,3.8,0,7.7,0,11.5
	c-0.9,0-1.7,0-2.6,0c-0.1-0.6-0.2-1.1-0.2-1.7c-1,0.8-2,1.5-3.2,1.8c-1.4,0.4-2.9,0.3-4.3-0.2c-1-0.4-1.9-1.4-2.2-2.5
	c-0.4-1.6-0.2-3.5,0.9-4.7c1-1.2,2.5-1.8,4-2c1.4-0.3,2.8-0.3,4.2-0.3c0-1.1,0.2-2.3-0.4-3.2c-0.5-0.7-1.4-1-2.2-1.1
	c-1.8-0.2-3.6,0.3-5.4,0.9C12.3,85.6,12.1,84.9,12,84.3 M16.2,92.2c-0.8,0.2-1.5,0.8-1.7,1.6c-0.2,0.9-0.2,1.9,0.4,2.6
	c0.5,0.7,1.5,0.9,2.4,0.8c1.2-0.1,2.2-0.8,3.2-1.6c0-1.3,0-2.6,0-3.8C19.1,91.8,17.6,91.7,16.2,92.2L16.2,92.2z"/>
<path class="st0" d="M42.1,84.3c2.3-1,4.9-1.5,7.4-1.2c1.3,0.2,2.6,0.6,3.4,1.6c0.8,0.9,1,2.2,1,3.4c0,3.8,0,7.6,0,11.3
	c-0.9,0-1.7,0-2.6,0c-0.1-0.6-0.2-1.1-0.3-1.7c-1.2,1-2.6,1.9-4.3,2c-1.5,0.1-3.2-0.1-4.3-1.1c-1.2-1.1-1.4-3-1.1-4.5
	c0.3-1.4,1.4-2.6,2.7-3.3c2-1,4.4-1,6.6-1c0-1,0.2-2.2-0.4-3.1c-0.4-0.8-1.3-1.1-2.1-1.2c-1.9-0.2-3.8,0.3-5.6,0.9
	C42.4,85.6,42.2,84.9,42.1,84.3 M46.3,92.2c-0.7,0.2-1.4,0.8-1.6,1.5c-0.2,0.9-0.2,1.9,0.4,2.7c0.6,0.7,1.6,0.9,2.4,0.8
	c1.2-0.2,2.3-0.8,3.2-1.6c0-1.2,0-2.5,0-3.8C49.2,91.8,47.7,91.7,46.3,92.2L46.3,92.2z"/>
<path class="st0" d="M25.8,83.2c1.2,0,2.4,0,3.6,0c0.7,2.3,1.4,4.5,2.1,6.8c0.4,1.4,0.9,2.8,1.2,4.2c0.2,0.6,0.3,1.3,0.5,1.9
	c1.5-4.2,2.6-8.5,3.2-12.8c1.2,0,2.3,0,3.5,0c-1,5.5-2.6,11-5,16.1c-1.4,0-2.7,0-4.1,0C29.1,94,27.4,88.6,25.8,83.2L25.8,83.2z"/>
<g>
	<path class="st0" d="M54.6,82.9h-0.4v-0.2h1v0.2h-0.4v1.2h-0.2C54.6,84.1,54.6,82.9,54.6,82.9z"/>
	<path class="st0" d="M56.5,83.5c0-0.2,0-0.4,0-0.6l0,0c0,0.2-0.1,0.3-0.2,0.5l-0.2,0.7H56l-0.2-0.7c-0.1-0.2-0.1-0.4-0.2-0.5l0,0
		c0,0.2,0,0.4,0,0.6v0.6h-0.2l0.1-1.4h0.2l0.2,0.7c0.1,0.2,0.1,0.3,0.1,0.5l0,0c0-0.1,0.1-0.3,0.1-0.5l0.2-0.7h0.2l0.1,1.4h-0.2
		L56.5,83.5z"/>
</g>
</svg>
