<?xml version="1.0" encoding="utf-8"?>
<!-- Generator: Adobe Illustrator 22.1.0, SVG Export Plug-In . SVG Version: 6.00 Build 0)  -->
<svg version="1.0" id="Layer_1" xmlns="http://www.w3.org/2000/svg" xmlns:xlink="http://www.w3.org/1999/xlink" x="0px" y="0px"
	 viewBox="0 0 65.6 65.7" style="enable-background:new 0 0 65.6 65.7;" xml:space="preserve">
<style type="text/css">
	.st0{fill:#FFFFFF;}
</style>
<title>Shape</title>
<desc>Created with Sketch.</desc>
<g id="Gallery">
	<g id="Project" transform="translate(-1008.000000, -1368.000000)">
		<g id="Skill-used" transform="translate(960.000000, 1278.000000)">
			<path id="Shape" class="st0" d="M49.8,91.8v62h62v-62H49.8z M82.2,144.9c-0.9,1.9-2.7,3.1-4.7,3.7c-3.1,0.7-6.1,0.3-8.3-1
				c-1.5-0.9-2.6-2.3-3.4-3.9c1.6-1,3.1-1.9,4.7-2.9c0,0,0.2,0.2,0.3,0.5c0.6,1,1.1,1.7,2.1,2.2c1,0.3,3.2,0.6,4-1.2
				c0.5-0.9,0.4-3.8,0.4-7c0-5,0-9.9,0-15h5.8c0,5.3,0,10.7,0,16C83.2,139.5,83.5,142.4,82.2,144.9L82.2,144.9z M106.2,143.2
				c-2,6.9-13.3,7.1-17.7,2.6c-0.9-1.1-1.5-1.6-2.1-2.9c2.4-1.4,2.4-1.4,4.7-2.7c1.3,1.9,2.4,3,4.5,3.4c2.8,0.3,5.7-0.6,5.1-3.7
				c-0.7-2.5-5.8-3.1-9.3-5.7c-3.6-2.4-4.4-8.2-1.5-11.6c1-1.2,2.6-2.2,4.4-2.6l1.8-0.2c3.5-0.1,5.7,0.9,7.3,2.7
				c0.4,0.5,0.8,0.9,1.5,2c-1.9,1.2-1.9,1.2-4.5,2.9c-0.6-1.2-1.5-2-2.5-2.3c-1.6-0.5-3.5,0-3.9,1.7c-0.1,0.5-0.1,1,0.1,1.8
				c0.6,1.4,2.7,2.1,4.6,2.9c5.5,2.2,7.3,4.6,7.8,7.4C106.8,141.4,106.3,143,106.2,143.2L106.2,143.2z"/>
		</g>
	</g>
</g>
</svg>
