<?xml version="1.0" encoding="utf-8"?>
<!-- Generator: Adobe Illustrator 22.1.0, SVG Export Plug-In . SVG Version: 6.00 Build 0)  -->
<svg version="1.0" id="Layer_1" xmlns="http://www.w3.org/2000/svg" xmlns:xlink="http://www.w3.org/1999/xlink" x="0px" y="0px"
	 viewBox="0 0 82 56.2" style="enable-background:new 0 0 82 56.2;" xml:space="preserve">
<style type="text/css">
	.st0{fill:#FFFFFF;}
</style>
<title>laravel</title>
<path class="st0" d="M80,26c-0.6-0.6-7.6-9.5-8.8-10.9c-1.3-1.5-1.8-1.2-2.7-1.1c-0.8,0.1-9.8,1.7-10.8,1.7c-1,0.2-1.7,0.6-1,1.5
	c0.6,0.8,6.4,9.1,7.7,11L41,33.8L22.4,2.6c-0.7-1.1-0.9-1.5-2.6-1.4C18.2,1.3,5.2,2.4,4.3,2.4c-0.9,0.1-1.9,0.5-1,2.7
	s15.6,33.9,16,34.8c0.4,0.9,1.5,2.4,4,1.8c2.6-0.6,11.4-2.9,16.3-4.2c2.6,4.6,7.7,14,8.7,15.4c1.3,1.8,2.2,1.5,4.1,0.9
	c1.6-0.5,24.1-8.6,25.1-9c1-0.5,1.7-0.7,0.9-1.7c-0.6-0.7-6.4-8.7-9.6-12.9c2.1-0.6,9.8-2.6,10.6-2.9C80.4,27,80.6,26.5,80,26L80,26
	z M37.4,34.7c-0.3,0.1-13.4,3.2-14.1,3.4c-0.7,0.2-0.7,0.1-0.7-0.2C22.4,37.6,7,5.6,6.7,5.3c-0.2-0.4-0.2-0.7,0-0.7
	c0.2,0,12.4-1.1,12.8-1.1c0.5,0,0.4,0.1,0.6,0.4c0,0,17.2,29.7,17.5,30.2C37.9,34.4,37.7,34.6,37.4,34.7L37.4,34.7z M74.4,41.6
	c0.2,0.4,0.5,0.6-0.3,0.7c-0.6,0.3-22.2,7.5-22.6,7.7s-0.7,0.3-1.3-0.6c-0.6-0.8-7.5-12.9-7.5-12.9l22.9-6c0.6-0.2,0.7-0.3,1.1,0.3
	C67,31.6,74.2,41.3,74.4,41.6L74.4,41.6z M75.9,25.4c-0.6,0.1-8.9,2.2-8.9,2.2l-6.9-9.4c-0.2-0.3-0.4-0.6,0.1-0.6
	c0.5-0.1,8.3-1.5,8.6-1.6c0.4-0.1,0.6-0.2,1.1,0.5c0.5,0.6,6.3,8.1,6.6,8.4C76.8,25.1,76.4,25.3,75.9,25.4L75.9,25.4z"/>
</svg>
