<?xml version="1.0" encoding="UTF-8"?>
<svg width="48px" height="48px" viewBox="0 0 48 48" version="1.1" xmlns="http://www.w3.org/2000/svg" xmlns:xlink="http://www.w3.org/1999/xlink">
    <!-- Generator: Sketch 51.2 (57519) - http://www.bohemiancoding.com/sketch -->
    <title>link</title>
    <desc>Created with Sketch.</desc>
    <defs></defs>
    <g id="Gallery" stroke="none" stroke-width="1" fill="none" fill-rule="evenodd">
        <g id="Project" transform="translate(-665.000000, -1653.000000)">
            <g id="Group-5" transform="translate(665.000000, 1653.000000)">
                <g id="link">
                    <circle id="Oval-2" fill="#d0021b" cx="24" cy="24" r="24"></circle>
                    <path d="M8.40557285,24.0111578 C8.40557285,19.7017945 11.899002,16.2083653 16.2083653,16.2083653 L22.0604597,16.2083653 C26.369823,16.2083653 29.8632522,19.7017945 29.8632522,24.0111578 L25.961856,24.0111578 C25.961856,21.8564762 24.2151414,20.1097616 22.0604597,20.1097616 L16.2083653,20.1097616 C14.0536837,20.1097616 12.3069691,21.8564762 12.3069691,24.0111578 C12.3069691,26.1658395 14.0536837,27.9125541 16.2083653,27.9125541 L18.1590635,31.8139503 L16.2083653,31.8139503 C11.899002,31.8139503 8.40557285,28.3205211 8.40557285,24.0111578 Z M29.8632522,16.2083653 L31.8139503,16.2083653 C36.1233136,16.2083653 39.6167428,19.7017945 39.6167428,24.0111578 C39.6167428,28.3205211 36.1233136,31.8139503 31.8139503,31.8139503 L25.961856,31.8139503 C21.6524927,31.8139503 18.1590635,28.3205211 18.1590635,24.0111578 L22.0604597,24.0111578 C22.0604597,26.1658395 23.8071743,27.9125541 25.961856,27.9125541 L31.8139503,27.9125541 C33.968632,27.9125541 35.7153466,26.1658395 35.7153466,24.0111578 C35.7153466,21.8564762 33.968632,20.1097616 31.8139503,20.1097616 L29.8632522,16.2083653 Z" id="Shape" fill="#FFFFFF" fill-rule="nonzero" transform="translate(24.011158, 24.011158) rotate(-45.000000) translate(-24.011158, -24.011158) "></path>
                </g>
            </g>
        </g>
    </g>
</svg>