<?xml version="1.0" encoding="UTF-8"?>
<svg width="48px" height="48px" viewBox="0 0 48 48" version="1.1" xmlns="http://www.w3.org/2000/svg" xmlns:xlink="http://www.w3.org/1999/xlink">
    <!-- Generator: Sketch 51.2 (57519) - http://www.bohemiancoding.com/sketch -->
    <title>Linkedin Popup</title>
    <desc>Created with Sketch.</desc>
    <defs></defs>
    <g id="About" stroke="none" stroke-width="1" fill="none" fill-rule="evenodd">
        <g id="About-zoom" transform="translate(-657.000000, -1700.000000)" fill="#FFFFFF">
            <path d="M681,1748 C667.745166,1748 657,1737.25483 657,1724 C657,1710.74517 667.745166,1700 681,1700 C694.254834,1700 705,1710.74517 705,1724 C705,1737.25483 694.254834,1748 681,1748 Z M695,1726.28948 C695,1721.0083 692.180148,1718.55081 688.41837,1718.55081 C685.382222,1718.55081 684.025778,1720.22193 683.26637,1721.3917 L683.26637,1721.44741 L683.228741,1721.44741 C683.239704,1721.42963 683.254815,1721.41007 683.26637,1721.3917 L683.26637,1718.95467 L677.549333,1718.95467 C677.62637,1720.56889 677.549333,1736.14815 677.549333,1736.14815 L683.266667,1736.14815 L683.266667,1726.54637 C683.266667,1726.0317 683.305481,1725.5203 683.456296,1725.15259 C683.86963,1724.12474 684.809481,1723.06193 686.388741,1723.06193 C688.457778,1723.06193 689.284444,1724.63881 689.284444,1726.94963 L689.284444,1736.14815 L695,1736.14815 L695,1726.28948 Z M671.568593,1710.66667 C669.612741,1710.66667 668.333333,1711.94963 668.333333,1713.63674 C668.333333,1715.28711 669.575704,1716.60889 671.492741,1716.60889 L671.530963,1716.60889 C673.524741,1716.60889 674.764741,1715.28741 674.764741,1713.63674 C674.727111,1711.94963 673.524741,1710.66667 671.568593,1710.66667 Z M668.672889,1736.14815 L674.388148,1736.14815 L674.388148,1718.95467 L668.672889,1718.95467 L668.672889,1736.14815 Z" id="Linkedin-Popup" transform="translate(681.000000, 1724.000000) rotate(-360.000000) translate(-681.000000, -1724.000000) "></path>
        </g>
    </g>
</svg>