<?xml version="1.0" encoding="utf-8"?>
<!-- Generator: Adobe Illustrator 22.1.0, SVG Export Plug-In . SVG Version: 6.00 Build 0)  -->
<svg version="1.0" id="Layer_1" xmlns="http://www.w3.org/2000/svg" xmlns:xlink="http://www.w3.org/1999/xlink" x="0px" y="0px"
	 viewBox="0 0 122 63" style="enable-background:new 0 0 122 63;" xml:space="preserve">
<style type="text/css">
	.st0{fill:#FFFFFF;}
</style>
<g>
	<path class="st0" d="M1.7,57.2h3.9V41.6l6.2,13.6c0.7,1.6,1.7,2.2,3.6,2.2s2.9-0.6,3.6-2.2l6.1-13.6v15.6h4V41.6
		c0-1.5-0.6-2.2-1.9-2.6c-3-0.9-5-0.1-5.9,1.9l-6,13.5L9.5,40.9c-0.9-2-2.9-2.8-5.9-1.9c-1.2,0.4-1.8,1.1-1.8,2.6L1.7,57.2L1.7,57.2
		z"/>
	<path class="st0" d="M32.4,44.5h4v8.6c0,0.5,0.2,1.6,2.3,1.6c1.1,0,8.5,0,8.6,0V44.4h4v14c0,3.5-4.3,4.2-6.3,4.2H32.5V60H45
		c2.5-0.3,2.2-1.5,2.2-2v-1h-8.4c-3.9,0-6.4-1.8-6.5-3.7C32.4,53.2,32.5,44.6,32.4,44.5L32.4,44.5z"/>
	<path class="st0" d="M117.6,34.5c-2.4-0.1-4.3,0.2-5.9,0.8c-0.5,0.2-1.2,0.2-1.2,0.8c0.2,0.2,0.3,0.6,0.5,1c0.4,0.6,1,1.4,1.6,1.8
		c0.6,0.5,1.3,1,1.9,1.4c1.2,0.7,2.5,1.2,3.7,1.9c0.7,0.4,1.3,1,2,1.4c0.3,0.2,0.5,0.6,1,0.8v-0.1c-0.2-0.3-0.3-0.7-0.5-1
		c-0.3-0.3-0.6-0.6-0.9-0.9c-0.9-1.2-2-2.2-3.2-3.1c-1-0.7-3.1-1.6-3.5-2.7c0,0,0,0-0.1-0.1c0.7-0.1,1.5-0.3,2.1-0.5
		c1-0.3,2-0.2,3-0.5c0.5-0.1,1-0.3,1.5-0.4c0-0.1,0-0.2,0-0.3c-0.5-0.5-0.9-1.3-1.5-1.8c-1.5-1.3-3.2-2.6-5-3.7
		c-0.9-0.6-2.2-1-3.2-1.5c-0.4-0.2-1-0.3-1.2-0.6c-0.5-0.7-0.8-1.5-1.2-2.3c-0.9-1.7-1.7-3.5-2.5-5.3c-0.5-1.2-0.9-2.4-1.5-3.5
		c-3.1-5.2-6.5-8.3-11.7-11.3c-1.1-0.6-2.5-0.9-3.9-1.2c-0.8,0-1.5-0.1-2.3-0.1c-0.5-0.2-1-0.8-1.4-1.1c-1.7-1.1-6.2-3.5-7.5-0.3
		c-0.8,2,1.2,3.9,1.9,4.9c0.5,0.7,1.2,1.5,1.5,2.3c0.2,0.5,0.3,1.1,0.5,1.6c0.5,1.3,0.9,2.8,1.6,4.1c0.3,0.6,0.7,1.3,1.1,1.9
		c0.2,0.3,0.7,0.5,0.8,1c-0.4,0.6-0.5,1.5-0.7,2.3c-1.1,3.4-0.7,7.7,0.9,10.2c0.5,0.8,1.6,2.4,3.2,1.8c1.4-0.5,1.1-2.3,1.5-3.8
		c0.1-0.4,0-0.6,0.2-0.8v0.1c0.4,0.8,0.8,1.7,1.2,2.5c0.9,1.5,2.6,3,3.9,4.1c0.7,0.5,1.3,1.5,2.2,1.8V36c0,0,0,0-0.1,0
		c-0.2-0.3-0.5-0.4-0.7-0.6c-0.5-0.5-1.2-1.2-1.6-1.8c-1.3-1.7-2.4-3.6-3.4-5.5c-0.5-0.9-0.9-2-1.3-2.9c-0.2-0.4-0.2-0.9-0.5-1.1
		c-0.5,0.7-1.1,1.2-1.5,2.1c-0.6,1.3-0.6,2.9-0.8,4.6c-0.1,0-0.1,0-0.1,0.1c-1-0.2-1.3-1.2-1.7-2.1c-0.9-2.2-1.1-5.6-0.3-8.1
		c0.2-0.6,1.1-2.6,0.8-3.2c-0.2-0.6-0.8-0.9-1.1-1.4c-0.4-0.6-0.8-1.3-1.1-1.9c-0.7-1.7-1.1-3.6-1.9-5.3c-0.4-0.8-1-1.6-1.5-2.3
		c-0.6-0.8-1.2-1.4-1.7-2.4c0-0.5-0.2-1,0-1.4c0.1-0.2,0.2-0.3,0.4-0.4c0.4-0.3,1.5,0.1,1.9,0.3c1.1,0.5,2.1,0.9,3,1.5
		c0.4,0.3,0.9,0.9,1.4,1c0.2,0,0.4,0,0.6,0c1,0.2,2.1,0.1,3,0.3c1.6,0.5,3.1,1.3,4.4,2.1c4,2.5,7.2,6.1,9.5,10.4
		c0.4,0.7,0.5,1.3,0.8,2.1c0.6,1.5,1.4,3,2.1,4.5c0.6,1.4,1.2,2.9,2.2,4.1c0.5,0.6,2.3,1,3.1,1.3c0.6,0.3,1.5,0.5,2.1,0.8
		c1,0.6,2.1,1.4,3,2.1C116,33.2,117.5,33.9,117.6,34.5L117.6,34.5z"/>
	<path class="st0" d="M86.6,8.2c-0.5,0-0.9,0.1-1.2,0.2c0,0,0,0,0,0.1c0,0,0,0,0.1,0c0.2,0.5,0.7,0.8,1,1.2c0.2,0.5,0.5,1,0.7,1.5
		l0.1-0.1c0.4-0.3,0.6-0.8,0.6-1.5c-0.2-0.2-0.2-0.4-0.4-0.6C87.3,8.6,86.9,8.4,86.6,8.2L86.6,8.2z"/>
	<path class="st0" d="M54.3,57.2h11.4c1.3,0,2.6-0.3,3.6-0.8c1.7-0.8,2.5-1.8,2.5-3.2v-2.9c0-1.1-0.9-2.2-2.8-2.9
		c-1-0.4-2.2-0.6-3.4-0.6h-4.8c-1.6,0-2.4-0.5-2.6-1.5c0-0.1,0-0.2,0-0.4v-1.8c0-0.1,0-0.2,0-0.3c0.2-0.8,0.6-1,2-1.2
		c0.1,0,0.3,0,0.4,0H72V39H60.9c-1.6,0-2.5,0.1-3.2,0.3c-2.3,0.7-3.4,1.9-3.4,3.9v2.3c0,1.8,2,3.3,5.4,3.7c0.4,0,0.8,0,1.2,0H65
		c0.2,0,0.3,0,0.4,0c1.2,0.1,1.8,0.3,2.2,0.8c0.2,0.2,0.3,0.5,0.3,0.7V53c0,0.3-0.2,0.6-0.5,0.9c-0.4,0.3-0.9,0.5-1.7,0.5
		c-0.2,0-0.2,0-0.4,0h-11V57.2L54.3,57.2z"/>
	<path class="st0" d="M96.5,52.6c0,2.7,2,4.2,6.1,4.5c0.4,0,0.8,0.1,1.2,0.1h10.3v-2.6h-10.4c-2.3,0-3.2-0.6-3.2-2V38.9h-4V52.6
		L96.5,52.6z"/>
	<path class="st0" d="M74.4,52.7v-9.4c0-2.4,1.7-3.8,5-4.3c0.4,0,0.7-0.1,1.1-0.1H88c0.4,0,0.7,0,1.1,0.1c3.3,0.5,5,1.9,5,4.3v9.4
		c0,1.9-0.7,3-2.3,3.7l3.9,3.5H91l-3.2-2.8l-3.2,0.2h-4.2c-0.7,0-1.5-0.1-2.3-0.3C75.6,56.3,74.4,54.9,74.4,52.7L74.4,52.7z
		 M78.6,52.5c0,0.1,0.1,0.2,0.1,0.4c0.2,1.1,1.2,1.7,2.8,1.7h3.6l-3.3-3h4.6l2.9,2.6c0.5-0.3,0.9-0.7,1-1.3c0-0.1,0-0.3,0-0.4v-9
		c0-0.1,0-0.2,0-0.4c-0.2-1-1.2-1.6-2.8-1.6h-6c-1.8,0-2.9,0.8-2.9,2L78.6,52.5L78.6,52.5z"/>
	<path class="st0" d="M115.9,57.2h0.6V55h0.8v-0.5h-2.1V55h0.8v2.2H115.9z M120.3,57.2h0.5v-2.7H120l-0.7,1.8l-0.7-1.8h-0.8v2.7h0.5
		v-2l0,0l0.8,2h0.4l0.8-2l0,0L120.3,57.2L120.3,57.2z"/>
</g>
</svg>
