<?xml version="1.0" encoding="utf-8"?>
<!-- Generator: Adobe Illustrator 22.1.0, SVG Export Plug-In . SVG Version: 6.00 Build 0)  -->
<svg version="1.0" id="Layer_1" xmlns="http://www.w3.org/2000/svg" xmlns:xlink="http://www.w3.org/1999/xlink" x="0px" y="0px"
	 viewBox="0 0 109.6 66.6" style="enable-background:new 0 0 109.6 66.6;" xml:space="preserve">
<style type="text/css">
	.st0{fill:#FFFFFF;}
	.st1{clip-path:url(#SVGID_2_);}
	.st2{clip-path:url(#SVGID_4_);}
</style>
<g>
	<path class="st0" d="M55.7,64.3c-0.3,0-0.7-0.1-1-0.3l-3.1-1.8c-0.5-0.3-0.2-0.3-0.1-0.4c0.6-0.2,0.7-0.3,1.4-0.6
		c0.1,0,0.2,0,0.2,0l2.3,1.4c0.1,0,0.2,0,0.3,0l9.1-5.3c0.1,0,0.1-0.1,0.1-0.2V46.5c0-0.1-0.1-0.2-0.1-0.3L55.9,41
		c-0.1,0-0.2,0-0.3,0l-9.1,5.3c-0.1,0.1-0.1,0.2-0.1,0.3v10.6c0,0.1,0.1,0.2,0.1,0.2l2.5,1.4c1.4,0.7,2.2-0.1,2.2-0.9V47.4
		c0-0.1,0.1-0.3,0.3-0.3h1.2c0.1,0,0.3,0.1,0.3,0.3v10.4c0,1.8-1,2.9-2.7,2.9c-0.5,0-0.9,0-2.1-0.6l-2.4-1.4c-0.6-0.3-1-1-1-1.7
		V46.5c0-0.7,0.4-1.3,1-1.7l9.1-5.3c0.6-0.3,1.3-0.3,1.9,0l9.1,5.3c0.6,0.3,1,1,1,1.7v10.6c0,0.7-0.4,1.3-1,1.7L56.7,64
		C56.4,64.2,56,64.3,55.7,64.3z"/>
	<path class="st0" d="M58.5,57c-4,0-4.8-1.8-4.8-3.4c0-0.1,0.1-0.3,0.3-0.3h1.2c0.1,0,0.2,0.1,0.3,0.2c0.2,1.2,0.7,1.8,3.1,1.8
		c1.9,0,2.7-0.4,2.7-1.5c0-0.6-0.2-1-3.2-1.3c-2.5-0.2-4-0.8-4-2.8c0-1.8,1.6-2.9,4.2-2.9c2.9,0,4.4,1,4.6,3.2c0,0.1,0,0.1-0.1,0.2
		c-0.1,0.1-0.1,0.1-0.2,0.1h-1.2c-0.1,0-0.2-0.1-0.3-0.2c-0.3-1.3-1-1.7-2.9-1.7c-2.1,0-2.3,0.7-2.3,1.3c0,0.7,0.3,0.9,3.1,1.2
		c2.8,0.4,4.1,0.9,4.1,2.9C63.1,55.9,61.4,57,58.5,57z"/>
</g>
<g>
	<path class="st0" d="M71.7,45.9c0,1-0.8,1.8-1.8,1.8s-1.8-0.8-1.8-1.8s0.8-1.8,1.8-1.8C70.9,44.2,71.7,44.9,71.7,45.9z M68.5,45.9
		c0,0.8,0.7,1.5,1.5,1.5s1.5-0.7,1.5-1.5s-0.7-1.5-1.5-1.5C69.1,44.5,68.5,45.1,68.5,45.9z M69.3,45H70c0.2,0,0.7,0,0.7,0.5
		c0,0.4-0.2,0.4-0.4,0.5c0.3,0,0.3,0.2,0.3,0.4s0,0.4,0.1,0.5h-0.4c0-0.1-0.1-0.6-0.1-0.6c0-0.1-0.1-0.2-0.2-0.2h-0.3v0.8h-0.4
		C69.3,46.9,69.3,45,69.3,45z M69.7,45.8H70c0.3,0,0.3-0.2,0.3-0.3c0-0.3-0.2-0.3-0.3-0.3h-0.3V45.8z"/>
</g>
<path class="st0" d="M27.4,23c0-0.4-0.2-0.8-0.6-1l-9.7-5.6c-0.2-0.1-0.3-0.1-0.5-0.2h-0.1c-0.2,0-0.4,0.1-0.5,0.2L6.3,22
	c-0.4,0.2-0.6,0.6-0.6,1v15c0,0.2,0.1,0.4,0.3,0.5c0.2,0.1,0.4,0.1,0.6,0l5.8-3.3c0.4-0.2,0.6-0.6,0.6-1v-7c0-0.4,0.2-0.8,0.6-1
	l2.5-1.4c0.2-0.1,0.4-0.2,0.6-0.2s0.4,0.1,0.6,0.2l2.5,1.4c0.4,0.2,0.6,0.6,0.6,1v7c0,0.4,0.2,0.8,0.6,1l5.8,3.3
	c0.2,0.1,0.4,0.1,0.6,0s0.3-0.3,0.3-0.5L27.4,23z"/>
<path class="st0" d="M74,2.4c-0.2-0.1-0.4-0.1-0.6,0s-0.3,0.3-0.3,0.5v14.9c0,0.1-0.1,0.3-0.2,0.4s-0.3,0.1-0.4,0l-2.4-1.4
	c-0.4-0.2-0.8-0.2-1.2,0l-9.7,5.6c-0.4,0.2-0.6,0.6-0.6,1v11.2c0,0.4,0.2,0.8,0.6,1l9.7,5.6c0.4,0.2,0.8,0.2,1.2,0l9.7-5.6
	c0.4-0.2,0.6-0.6,0.6-1v-28c0-0.4-0.2-0.8-0.6-1L74,2.4z M73.1,30.8c0,0.1-0.1,0.2-0.1,0.3L69.7,33c-0.1,0.1-0.2,0.1-0.3,0L66,31.1
	c-0.1-0.1-0.1-0.1-0.1-0.3V27c0-0.1,0.1-0.2,0.1-0.3l3.3-1.9c0.1-0.1,0.2-0.1,0.3,0l3.3,1.9C73,26.8,73,26.8,73,27L73.1,30.8
	L73.1,30.8z"/>
<g>
	<path class="st0" d="M106.3,26.9c0.4-0.2,0.6-0.6,0.6-1v-2.7c0-0.4-0.2-0.8-0.6-1l-9.6-5.6c-0.4-0.2-0.8-0.2-1.2,0l-9.7,5.6
		c-0.4,0.2-0.6,0.6-0.6,1v11.2c0,0.4,0.2,0.8,0.6,1l9.6,5.5c0.4,0.2,0.8,0.2,1.1,0l5.8-3.2c0.2-0.1,0.3-0.3,0.3-0.5
		s-0.1-0.4-0.3-0.5L92.7,31c-0.2-0.1-0.3-0.3-0.3-0.5V27c0-0.2,0.1-0.4,0.3-0.5l3-1.8c0.2-0.1,0.4-0.1,0.6,0l3,1.8
		c0.2,0.1,0.3,0.3,0.3,0.5v2.8c0,0.2,0.1,0.4,0.3,0.5c0.2,0.1,0.4,0.1,0.6,0L106.3,26.9z"/>
	<path class="st0" d="M96,26.4c0.1,0,0.2,0,0.2,0l1.9,1.1c0.1,0,0.1,0.1,0.1,0.2v2.1c0,0.1,0,0.2-0.1,0.2l-1.9,1c-0.1,0-0.2,0-0.2,0
		l-1.9-1C94,30,94,29.9,94,29.8v-2.1c0-0.1,0-0.2,0.1-0.2L96,26.4z"/>
</g>
<g>
	<g>
		<path id="XMLID_143_" class="st0" d="M43.6,16.6c-0.4-0.2-0.8-0.2-1.2,0l-9.6,5.6c-0.4,0.2-0.6,0.6-0.6,1v11.1
			c0,0.4,0.2,0.8,0.6,1l9.6,5.6c0.4,0.2,0.8,0.2,1.2,0l9.6-5.6c0.4-0.2,0.6-0.6,0.6-1V23.2c0-0.4-0.2-0.8-0.6-1L43.6,16.6z"/>
	</g>
	<g>
		<defs>
			<path id="SVGID_1_" d="M43.6,16.6c-0.4-0.2-0.8-0.2-1.2,0l-9.6,5.6c-0.4,0.2-0.6,0.6-0.6,1v11.1c0,0.4,0.2,0.8,0.6,1l9.6,5.6
				c0.4,0.2,0.8,0.2,1.2,0l9.6-5.6c0.4-0.2,0.6-0.6,0.6-1V23.2c0-0.4-0.2-0.8-0.6-1L43.6,16.6z"/>
		</defs>
		<use xlink:href="#SVGID_1_"  style="overflow:visible;fill:#FFFFFF;"/>
		<clipPath id="SVGID_2_">
			<use xlink:href="#SVGID_1_"  style="overflow:visible;"/>
		</clipPath>
		<g class="st1">
			<path class="st0" d="M42.4,16.6l-9.7,5.6c-0.4,0.2-0.6,0.6-0.6,1v11.1c0,0.3,0.1,0.5,0.3,0.7l10.9-18.6
				C43,16.4,42.7,16.5,42.4,16.6z"/>
			<path class="st0" d="M43.4,41c0.1,0,0.2-0.1,0.3-0.1l9.7-5.6c0.4-0.2,0.6-0.6,0.6-1V23.2c0-0.3-0.1-0.6-0.4-0.8L43.4,41z"/>
			<path class="st0" d="M53.3,22.2l-9.7-5.6c-0.1-0.1-0.2-0.1-0.3-0.1L32.5,35.1c0.1,0.1,0.2,0.2,0.3,0.3l9.7,5.6
				c0.3,0.2,0.6,0.2,0.9,0.1l10.2-18.6C53.5,22.3,53.4,22.2,53.3,22.2z"/>
		</g>
	</g>
	<g>
		<defs>
			<path id="SVGID_3_" d="M43.6,16.6c-0.4-0.2-0.8-0.2-1.2,0l-9.6,5.6c-0.4,0.2-0.6,0.6-0.6,1v11.1c0,0.4,0.2,0.8,0.6,1l9.6,5.6
				c0.4,0.2,0.8,0.2,1.2,0l9.6-5.6c0.4-0.2,0.6-0.6,0.6-1V23.2c0-0.4-0.2-0.8-0.6-1L43.6,16.6z"/>
		</defs>
		<use xlink:href="#SVGID_3_"  style="overflow:visible;fill:#FFFFFF;"/>
		<clipPath id="SVGID_4_">
			<use xlink:href="#SVGID_3_"  style="overflow:visible;"/>
		</clipPath>
		<g class="st2">
			<path class="st0" d="M53.9,34.3V23.2c0-0.4-0.3-0.8-0.6-1l-9.7-5.6c-0.1-0.1-0.2-0.1-0.4-0.1l10.6,18.1
				C53.9,34.5,53.9,34.4,53.9,34.3z"/>
			<path class="st0" d="M32.8,22.2c-0.4,0.2-0.6,0.6-0.6,1v11.1c0,0.4,0.3,0.8,0.6,1l9.7,5.6c0.2,0.1,0.5,0.2,0.7,0.1L32.8,22.2
				L32.8,22.2z"/>
			<polygon class="st0" points="42.1,14.6 42,14.6 42.2,14.6 			"/>
			<path class="st0" d="M53.3,35.3c0.3-0.2,0.5-0.4,0.6-0.7L43.3,16.5c-0.3-0.1-0.6,0-0.8,0.1l-9.6,5.5L43.2,41
				c0.1,0,0.3-0.1,0.4-0.1L53.3,35.3z"/>
			<polygon class="st0" points="54.2,35.1 54.1,35 54.1,35.2 			"/>
			<path class="st0" d="M53.3,35.3l-9.7,5.6C43.5,41,43.4,41,43.2,41l0.2,0.4l10.7-6.2V35l-0.3-0.5C53.8,34.9,53.6,35.2,53.3,35.3z"
				/>
			<path class="st0" d="M53.3,35.3l-9.7,5.6C43.5,41,43.4,41,43.2,41l0.2,0.4l10.7-6.2V35l-0.3-0.5C53.8,34.9,53.6,35.2,53.3,35.3z"
				/>
		</g>
	</g>
</g>
</svg>
