<?xml version="1.0" encoding="utf-8"?>
<!-- Generator: Adobe Illustrator 22.1.0, SVG Export Plug-In . SVG Version: 6.00 Build 0)  -->
<svg version="1.0" id="Layer_1" xmlns="http://www.w3.org/2000/svg" xmlns:xlink="http://www.w3.org/1999/xlink" x="0px" y="0px"
	 viewBox="0 0 83 43" style="enable-background:new 0 0 83 43;" xml:space="preserve">
<style type="text/css">
	.st0{fill:#FFFFFF;}
</style>
<g>
	<path class="st0" d="M41.4,1.1c-22.1,0-40,9.1-40,20.3s17.9,20.3,40,20.3s40-9.1,40-20.3S63.5,1.1,41.4,1.1z M43.5,28.2
		c-0.1-0.1-0.2-0.3-0.1-0.5l1.9-9.7c0.2-1.2,0-1.6-0.1-1.7s-0.5-0.4-1.9-0.4H40l-2.3,12c-0.1,0.3-0.3,0.5-0.6,0.5h-4.7
		c-0.2,0-0.4-0.1-0.5-0.2c-0.1-0.1-0.2-0.3-0.1-0.5l0.9-4.4c-0.5,0.9-1.2,1.8-2,2.5c-1,1-2.2,1.6-3.4,2c-1.2,0.4-2.8,0.6-4.7,0.6H19
		l-1,5.3c-0.1,0.3-0.3,0.5-0.6,0.5h-4.8c-0.2,0-0.4-0.1-0.5-0.2c-0.1-0.1-0.2-0.3-0.1-0.5l4-21.9c0.1-0.3,0.3-0.5,0.6-0.5h9.2
		c2.9,0,5.1,0.8,6.5,2.4c0.8,0.9,1.2,1.9,1.4,3.1l2.1-10.8c0.1-0.3,0.3-0.5,0.6-0.5h4.7c0.2,0,0.4,0.1,0.5,0.2C42,5.6,42,5.8,42,6
		l-1,5h3.4c2.9,0,4.8,0.5,5.9,1.6c1.2,1.1,1.6,2.8,1.1,5.1l-2,10.2c-0.1,0.3-0.3,0.5-0.6,0.5H44C43.8,28.5,43.6,28.4,43.5,28.2z
		 M70.8,20.1c-0.2,1.1-0.6,2.2-1.1,3.1s-1.2,1.8-2.1,2.6c-1,1-2.2,1.6-3.4,2c-1.2,0.4-2.8,0.6-4.7,0.6h-3.6l-1,5.3
		c-0.1,0.3-0.3,0.5-0.6,0.5h-4.8c-0.2,0-0.4-0.1-0.5-0.2c-0.1-0.1-0.2-0.3-0.1-0.5l4.3-21.9c0.1-0.3,0.3-0.5,0.6-0.5H63
		c2.9,0,5.1,0.8,6.5,2.4C70.9,15,71.3,17.3,70.8,20.1z"/>
	<path class="st0" d="M24.1,15.8h-2.7l-1.5,7.9H22c1.8,0,3.1-0.3,3.9-1c0.8-0.6,1.4-1.7,1.7-3.2c0.3-1.4,0.2-2.4-0.3-2.9
		C26.9,16.2,26.1,15.8,24.1,15.8z"/>
	<path class="st0" d="M61.4,15.8h-2.7l-1.5,7.9h2.1c1.8,0,3.1-0.3,3.9-1c0.8-0.6,1.4-1.7,1.7-3.2c0.3-1.4,0.2-2.4-0.3-2.9
		C64.2,16.2,63.4,15.8,61.4,15.8z"/>
</g>
</svg>
