<?xml version="1.0" encoding="utf-8"?>
<!-- Generator: Adobe Illustrator 22.1.0, SVG Export Plug-In . SVG Version: 6.00 Build 0)  -->
<svg version="1.0" id="Layer_1" xmlns="http://www.w3.org/2000/svg" xmlns:xlink="http://www.w3.org/1999/xlink" x="0px" y="0px"
	 viewBox="0 0 63 65" style="enable-background:new 0 0 63 65;" xml:space="preserve">
<style type="text/css">
	.st0{fill:#FFFFFF;}
</style>
<g>
	<path class="st0" d="M32.2,47.8c0,0.7,0,1.4,0,2.1C32.2,49.2,32.2,48.5,32.2,47.8z"/>
	<path class="st0" d="M61.3,38.6c-0.4-1.1-1.3-1.9-2.5-2c-0.6-0.1-1.2,0-2,0.1c-1.4,0.3-2.4,0.4-3.1,0.4c2.7-4.7,5-10.1,6.3-15.1
		c2.1-8.2,1-11.9-0.3-13.6C56.2,4,51.1,1.6,45,1.5c-3.3,0-6.1,0.6-7.6,1.1c-1.4-0.2-2.9-0.4-4.5-0.4c-3,0-5.6,0.6-7.8,1.9
		c-1.2-0.4-3.2-1-5.5-1.4c-5.4-0.9-9.7-0.2-12.9,2c-3.8,2.7-5.6,7.4-5.3,14c0.1,2.1,1.3,8.4,3.1,14.5c1.1,3.5,2.2,6.3,3.4,8.6
		c1.7,3.1,3.4,5,5.4,5.6c1.1,0.4,3.1,0.6,5.3-1.1c0.3,0.3,0.6,0.7,1.1,1c0.6,0.4,1.3,0.7,2.1,0.9c2.7,0.7,5.2,0.5,7.3-0.4
		c0,0.4,0,0.7,0,1.1c0,0.5,0,1,0,1.5c0.1,3.1,0.3,5.6,1,7.3c0,0.1,0.1,0.2,0.1,0.4c0.3,1,0.8,2.6,2.2,3.9c1.4,1.3,3.1,1.7,4.6,1.7
		c0.8,0,1.5-0.1,2.2-0.2c2.3-0.5,4.9-1.3,6.8-4c1.8-2.6,2.7-6.4,2.8-12.5c0-0.2,0-0.3,0.1-0.5v-0.3h0.4h0.1c2.4,0.1,5.2-0.4,7-1.2
		C57.9,44.2,62.4,41.8,61.3,38.6z M55.6,43.1c-1.4,0.7-3.7,1.1-5.6,1.1c-1,0-1.8-0.1-2.5-0.3c-0.3,2.9-1,8.3-1.4,10.6
		c-0.7,4.2-2.6,6.2-7,7.1c-0.7,0.1-1.4,0.2-2,0.2c-4.1,0-5.5-3.3-6-4.7c-0.6-1.7-0.8-7.1-0.8-12.6c-1.5,1.4-3.4,2.1-5.5,2.1
		c-0.9,0-1.8-0.2-2.8-0.4c-0.3-0.1-2.7-0.8-2.7-2.3c0-1.4,2-1.8,2.8-2c2.7-0.5,2.9-0.7,3.7-1.8c0.2-0.2,0.4-0.5,0.6-0.7v-0.1
		c-1.2,0-2.3-0.3-3.4-0.9c-1.7,1.8-3.3,3.6-4.8,5.4c-1.3,1.6-2.5,2-3.5,2c-0.4,0-0.8-0.1-1.1-0.2c-2.8-0.9-5.3-5.3-7.7-13.1
		c-1.8-5.9-2.9-12.1-3-14.1C2.6,12.5,4.2,8.3,7.5,5.9c2.8-2,6.7-2.6,11.6-1.8c2.9,0.5,5.2,1.3,6.1,1.6c2.1-1.5,4.6-2.1,7.5-2.1
		c1.6,0.1,3.1,0.3,4.4,0.6C37.7,3.9,40.9,3,44.8,3C50.4,3.1,55,5.3,58.2,9.3c0.8,1,1.1,2.7,1.1,4.9c0,2-0.4,4.5-1.1,7.2
		c-1.5,5.7-4.2,11.8-7.5,16.8c0.5,0.4,2.1,1,6.3,0.1c1.5-0.3,2.3,0,2.6,0.8C60.1,40.6,57.3,42.4,55.6,43.1z"/>
	<path class="st0" d="M22.3,35.7c1.2,1.3,2.8,2,4.5,2c0.2-0.8,0.5-1.6,0.8-2.5l0.1-0.3c0.2-0.4,0.4-0.8,0.6-1.3
		c1-2.2,2.2-5,0.8-11.6c-0.2-1.3-0.9-2.1-2-2.3c-2.4-0.5-5.8,1.3-6.5,1.9c0,0.1,0,0.3,0,0.5c0.1,1.5,0.2,4.3-0.2,7.5
		C20.1,31.9,20.8,34.1,22.3,35.7z M25.2,20.8c0.3-0.2,0.9-0.3,1.5-0.2c0.8,0.1,1.6,0.5,1.5,1.1c0,0.4-0.7,1-1.5,1
		c-0.1,0-0.1,0-0.2,0c-0.4-0.1-0.9-0.4-1.2-0.8c-0.2-0.2-0.3-0.4-0.3-0.7C25,21.1,25,20.9,25.2,20.8z"/>
	<path class="st0" d="M51,18.8c0,1.2-0.1,2.3-0.3,3.3c-0.1,0.9-0.3,1.7-0.3,2.7c0,0.9,0.1,1.9,0.2,3c0.3,2.6,0.7,5.5-1.1,8.4
		l0.1,0.1c0.1,0.1,0.1,0.2,0.2,0.3c6.9-10.8,9.3-23.3,7.1-26.1C54.1,6.9,50.1,5,45.1,4.9c-2-0.1-3.8,0.2-5.1,0.5
		c3,1.3,5.2,3.3,6.8,4.9c2.7,3.3,4.1,6.8,4.2,8C51,18.5,51,18.7,51,18.8z"/>
	<path class="st0" d="M8.6,7.5c-2.8,2-4.1,5.7-3.8,11c0.1,1.6,1.2,7.6,3,13.6C9.9,39,12.2,43.3,14.3,44c0.4,0.2,1.3,0.5,2.7-1.2
		c1.9-2.4,3.8-4.4,4.6-5.2c-0.2-0.2-0.4-0.4-0.6-0.6c-1.9-2-2.8-4.8-2.4-7.6c0.4-3,0.3-5.7,0.2-7.1c0-0.4,0-0.7,0-0.9
		c0-0.6-0.2-9.1,4.8-14.1l0.1-0.1C20.7,6.2,13.2,4.3,8.6,7.5z"/>
	<path class="st0" d="M27.2,41.4c-1.1,1.3-1.6,1.8-4.7,2.4c-0.6,0.2-1,0.3-1.2,0.4c0.3,0.2,0.7,0.4,1.2,0.5c2.3,0.5,5.6,0.6,7.7-2.4
		c0.3-0.4,0.2-0.9,0.1-1.1c-0.1-0.6-0.5-1-0.9-1.2c-0.5-0.2-0.7-0.3-1.3,0.3C27.7,40.7,27.4,41.1,27.2,41.4z"/>
	<path class="st0" d="M39,60c3.7-0.8,5-2.2,5.6-5.8c0.4-2.7,1.4-10.4,1.5-12c-0.1-3.3,1.6-3.9,2.6-4.2c-0.2-0.2-0.3-0.4-0.5-0.6
		c-0.6-0.7-1.3-1.7-1.9-3.1c-0.1-0.2-0.4-0.7-0.7-1.3c-1.8-3.2-5.5-10-3.3-13.5c1.2-1.6,3.4-2.2,6.6-1.9c-0.4-1.3-1.5-3.6-3.5-6
		c-2.3-2.7-6.4-6-12.8-6.1c-3.2,0-5.9,1-7.9,3c-3.1,3.2-4,8.3-4.2,11c0.2-0.1,0.3-0.2,0.5-0.3c0.8-0.4,2.4-1.1,4.2-1.3
		c3-0.3,4.9,1,5.5,3.7c1.6,7.2,0.1,10.4-0.9,12.7c-0.2,0.4-0.4,0.8-0.5,1.2l-0.1,0.3c-0.4,0.9-0.6,1.6-0.8,2.3
		c0.8-0.2,1.5,0.1,1.8,0.2c0.9,0.4,1.6,1.3,1.9,2.3c0,0.2,0.1,0.3,0.1,0.5c0,0.1,0,0.2,0,0.3c-0.1,2.2-0.1,4.4,0,6.4
		c0.1,0.7,0.1,1.4,0,2.1c0.1,3.4,0.4,5.9,0.7,6.7C33.8,58.9,35.2,60.8,39,60z"/>
	<path class="st0" d="M49.9,39.7c0-0.1-0.1-0.1-0.2-0.2c-0.2,0-0.3,0.1-0.4,0.1c-0.8,0.3-1.6,0.5-1.5,2.5c0.2,0.2,1.1,0.5,2.9,0.4
		c1.6-0.1,3.3-0.4,4.3-0.9c1.2-0.5,2-1.1,2.4-1.6C53.8,40.7,51.3,40.6,49.9,39.7z"/>
	<path class="st0" d="M48.8,28.1c-0.1-1.1-0.2-2.2-0.2-3.3c0-1.1,0.2-2,0.3-2.9c0.2-0.9,0.3-1.6,0.3-2.5c-3.4-0.4-4.8,0.4-5.4,1.3
		c-1.8,2.6,1.7,8.9,3.2,11.6c0.4,0.7,0.7,1.2,0.8,1.5c0.2,0.3,0.3,0.6,0.5,0.9C49.3,32.5,49.1,30.3,48.8,28.1z M47.2,21.4
		c-0.2,0.1-0.5,0.4-1,0.5c-0.1,0-0.1,0-0.2,0c-0.7,0-1.4-0.6-1.4-0.9c0-0.5,0.7-0.8,1.4-0.9c0.8-0.1,1.5,0.1,1.6,0.5
		C47.7,20.8,47.5,21.1,47.2,21.4z"/>
</g>
</svg>
