<?xml version="1.0" encoding="utf-8"?>
<!-- Generator: Adobe Illustrator 22.1.0, SVG Export Plug-In . SVG Version: 6.00 Build 0)  -->
<svg version="1.0" id="Layer_1" xmlns="http://www.w3.org/2000/svg" xmlns:xlink="http://www.w3.org/1999/xlink" x="0px" y="0px"
	 viewBox="0 0 71.2 64" style="enable-background:new 0 0 71.2 64;" xml:space="preserve">
<style type="text/css">
	.st0{fill:#FFFFFF;}
</style>
<path class="st0" d="M55.8,22.3c-0.6-0.2-1.3-0.4-2-0.6c0.1-0.5,0.2-0.9,0.3-1.4c1.5-7.3,0.5-13.2-2.9-15.2
	C48,3.3,42.8,5.2,37.4,9.9c-0.5,0.4-1,0.9-1.5,1.4c-0.3-0.3-0.7-0.6-1-0.9c-5.6-5-11.2-7.1-14.6-5.1c-3.2,1.9-4.2,7.4-2.8,14.4
	c0.1,0.7,0.3,1.4,0.5,2.1c-0.8,0.2-1.6,0.5-2.3,0.7C9,24.7,4.8,28.3,4.8,32c0,3.8,4.5,7.7,11.3,10c0.5,0.2,1.1,0.4,1.7,0.5
	c-0.2,0.8-0.4,1.5-0.5,2.2c-1.3,6.8-0.3,12.3,2.9,14.1c3.3,1.9,8.9-0.1,14.4-4.8c0.4-0.4,0.9-0.8,1.3-1.2c0.6,0.5,1.1,1.1,1.7,1.5
	c5.3,4.5,10.5,6.4,13.7,4.5c3.3-1.9,4.4-7.8,3-14.8c-0.1-0.5-0.2-1.1-0.4-1.7c0.4-0.1,0.8-0.2,1.2-0.4c7.1-2.4,11.7-6.2,11.7-10.1
	C66.8,28.2,62.5,24.6,55.8,22.3z M39.1,11.9c4.6-4,8.9-5.6,10.8-4.4c2.1,1.2,2.9,6,1.6,12.4c-0.1,0.4-0.2,0.8-0.3,1.2
	c-2.6-0.6-5.4-1-8.3-1.3c-1.7-2.4-3.5-4.6-5.2-6.5C38.2,12.7,38.7,12.3,39.1,11.9z M24.5,32c0.8-1.7,1.7-3.3,2.6-5l0,0
	c1-1.7,2-3.3,3-4.8c1.8-0.1,3.7-0.2,5.6-0.2h0c1.9,0,3.8,0.1,5.7,0.2c1,1.5,2,3.1,3,4.8c1,1.7,1.9,3.3,2.7,5c-0.8,1.7-1.7,3.3-2.7,5
	c-1,1.7-2,3.3-3,4.8C39.7,42,37.8,42,35.8,42c-1.9,0-3.8-0.1-5.6-0.2c-1.1-1.5-2.1-3.1-3-4.8h0C26.2,35.4,25.4,33.7,24.5,32z
	 M23.1,35.2c0.6,1.1,1.1,2.1,1.8,3.2h0c0.6,1.1,1.3,2.1,1.9,3.2c-2-0.2-3.9-0.5-5.7-0.9C21.7,38.9,22.4,37,23.1,35.2z M23.1,28.9
	c-0.8-1.8-1.4-3.6-2-5.4c1.8-0.4,3.7-0.7,5.6-1c-0.7,1-1.3,2.1-1.9,3.1v0C24.3,26.8,23.7,27.9,23.1,28.9z M46.8,38.3
	c0.6-1.1,1.2-2.2,1.8-3.3c0.8,1.9,1.5,3.7,2.1,5.5c-1.8,0.4-3.7,0.7-5.8,1C45.5,40.5,46.2,39.4,46.8,38.3z M48.6,28.9
	c-0.6-1.1-1.2-2.1-1.8-3.2c-0.6-1.1-1.2-2.1-1.9-3.1c2,0.3,3.9,0.6,5.7,1C50,25.3,49.3,27.1,48.6,28.9z M35.9,15.1
	c1.2,1.3,2.4,2.8,3.6,4.4c-1.2-0.1-2.4-0.1-3.7-0.1c-1.2,0-2.4,0-3.6,0.1C33.4,17.9,34.6,16.4,35.9,15.1z M21.6,7.5
	c2.1-1.2,6.7,0.5,11.5,4.8c0.3,0.3,0.6,0.6,0.9,0.9c-1.8,1.9-3.6,4.1-5.3,6.5C25.8,20,23,20.4,20.5,21c-0.2-0.6-0.3-1.3-0.4-1.9
	C18.9,13.1,19.6,8.7,21.6,7.5z M18.6,40c-0.5-0.2-1-0.3-1.5-0.5c-3-1-5.5-2.4-7.2-3.8C8.3,34.3,7.5,33,7.5,32c0-2.3,3.4-5.1,9-7.1
	c0.7-0.2,1.4-0.5,2.1-0.7c0.8,2.5,1.8,5.2,3,7.8C20.4,34.8,19.3,37.4,18.6,40z M32.9,52.1c-2.4,2.1-4.8,3.6-6.9,4.3
	c-1.9,0.7-3.4,0.7-4.3,0.2c-2-1.1-2.8-5.5-1.7-11.3c0.1-0.7,0.3-1.4,0.5-2.1c2.5,0.6,5.4,1,8.4,1.2c1.7,2.4,3.5,4.6,5.3,6.6
	C33.7,51.4,33.3,51.7,32.9,52.1z M35.9,49.1c-1.3-1.4-2.5-2.9-3.7-4.5c1.2,0,2.4,0.1,3.6,0.1c1.3,0,2.5,0,3.7-0.1
	C38.4,46.2,37.2,47.7,35.9,49.1z M52,52.8c-0.4,2-1.1,3.3-2,3.8c-2,1.1-6.1-0.3-10.6-4.2c-0.5-0.4-1-0.9-1.6-1.4
	c1.7-1.9,3.5-4.1,5.2-6.6c3-0.3,5.8-0.7,8.4-1.3c0.1,0.5,0.2,1,0.3,1.5C52.3,47.7,52.4,50.5,52,52.8z M54.3,39.5
	c-0.3,0.1-0.7,0.2-1,0.3c-0.8-2.5-1.8-5.1-3.1-7.9c1.2-2.7,2.3-5.3,3-7.7c0.6,0.2,1.2,0.4,1.8,0.6c5.7,2,9.2,4.9,9.2,7.1
	C64.2,34.4,60.4,37.5,54.3,39.5z"/>
</svg>
