<?xml version="1.0" encoding="utf-8"?>
<!-- Generator: Adobe Illustrator 22.1.0, SVG Export Plug-In . SVG Version: 6.00 Build 0)  -->
<svg version="1.0" id="Layer_1" xmlns="http://www.w3.org/2000/svg" xmlns:xlink="http://www.w3.org/1999/xlink" x="0px" y="0px"
	 viewBox="0 0 50.5 64.3" style="enable-background:new 0 0 50.5 64.3;" xml:space="preserve">
<style type="text/css">
	.st0{fill:#FFFFFF;}
</style>
<g>
	<rect x="17.4" y="53" class="st0" width="2.2" height="2.4"/>
	<rect x="7.9" y="53" class="st0" width="2.2" height="1.8"/>
	<path class="st0" d="M7.9,1.1c-3.9,0-7,3.1-7,7v55h41.7c3.9,0,7-3.1,7-7v-55H7.9z M41.6,7.8L44,9.5l-0.1,0.8l-2.3-1.4V7.8z M34,5.5
		l0.5,1.8L32,7.2l-0.8-1.9L34,5.5z M24.3,6.6L26,8.8l-1.4,0.9l0,0l-0.7,0.4L22,8L24.3,6.6z M15.4,13.3L15.4,13.3L15.4,13.3l1.2,0.8
		l-0.1,0l1.5,1.1l-1.6,2.3l-2.8-1.8L15.4,13.3z M8.9,23.8l3.2,1.4l-1,3L7.8,27L8.9,23.8z M4.1,40.2L5,36.8l3.9,0.6L8,41.1l-1.7-0.2
		L4,40.6L4.1,40.2z M9.8,59.6l-2-2.6v2.7H5.4v-9c0,0,3.3,0,4.8,0s2.3,1.4,2.3,2.2v1.5c0,1.8-2,2.2-2.1,2.2l2.3,3H9.8z M22,59.6h-2.4
		v-1.8h-2.2v1.8H15c0,0,0-5.4,0-6.7s1.2-2.3,2.3-2.3h2.2c1.3,0,2.5,1,2.5,2.3S22,59.6,22,59.6z M27,59.6h-2.4v-9H27V59.6z
		 M35.7,59.6h-6v-9h2.4v6.6h3.6V59.6z M29.7,32.6l0.3,2.2l-3-1.4v-2.3L29.7,32.6z M27.6,25.7l0.6-2l2,2.1l-0.5,1.8L27.6,25.7z
		 M31.7,41.3l1,2.3l-3.6-0.3l-0.9-2.7L31.7,41.3z M30.3,18.9l1.2-1.4l1.3,2.1l-1,1.4L30.3,18.9z M35.7,16.6l-0.8-1.8l1.7-0.7
		l0.5,1.7L35.7,16.6z M44.3,57.5c0,1.2-1.2,2.2-2.5,2.2s-4.4,0-4.4,0v-2.3h4.4v-1.1c0,0-1,0-2.2,0c-1.1,0-2.4-1-2.4-2.4v-1
		c0-1.2,1-2.3,2.4-2.3c1.4,0,4.1,0,4.1,0v2.2h-4.1v1c0,0,1.2,0,2.3,0c1,0,2.2,1,2.4,2.5V57.5z M41.4,13.8l1.8,0.4V15l-1.7-0.1
		L41.4,13.8z M46.2,14.8c-6.3-3.7-13.1-3.1-17.7,5.7c-3.1,6-3.7,15,0.9,26.8H23H12.3H9c0,0,0-0.1,0-0.1h0c0.1-1.8,0.3-3.6,0.5-5.3
		c0.1-1.5,0.4-2.9,0.6-4.3l0,0.1C14.3,14.1,26.9,7.8,34.3,8.2c5.4,0.3,8.8,1.9,12.4,5.4C46.7,13.6,46.4,14.3,46.2,14.8z"/>
</g>
</svg>
