<?xml version="1.0" encoding="utf-8"?>
<!-- Generator: Adobe Illustrator 22.1.0, SVG Export Plug-In . SVG Version: 6.00 Build 0)  -->
<svg version="1.0" id="Layer_1" xmlns="http://www.w3.org/2000/svg" xmlns:xlink="http://www.w3.org/1999/xlink" x="0px" y="0px"
	 viewBox="0 0 68.8 52.6" style="enable-background:new 0 0 68.8 52.6;" xml:space="preserve">
<style type="text/css">
	.st0{fill:#FFFFFF;}
</style>
<path class="st0" d="M58.4,30.2c-2.3,0-4.4,0.6-6,1.4c-0.6-1.2-1.3-2.3-1.4-3.1c-0.1-0.9-0.3-1.5-0.1-2.6c0.1-1.1,0.8-2.7,0.8-2.8
	c0-0.1-0.1-0.7-1.5-0.7c-1.3,0-2.5,0.3-2.6,0.6c-0.1,0.4-0.4,1.2-0.6,2c-0.2,1.2-2.7,5.6-4.1,7.8c-0.5-0.9-0.8-1.7-0.9-2.3
	c-0.1-0.9-0.3-1.5-0.1-2.6c0.1-1.1,0.8-2.7,0.8-2.8c0-0.1-0.1-0.7-1.5-0.7c-1.3,0-2.5,0.3-2.6,0.6c-0.1,0.4-0.3,1.2-0.6,2
	c-0.3,0.8-3.5,8.1-4.4,9.9c-0.4,1-0.8,1.7-1.1,2.3c-0.3,0.5,0,0,0,0.1c-0.2,0.4-0.4,0.7-0.4,0.7v0c-0.2,0.3-0.4,0.6-0.5,0.6
	c-0.1,0-0.2-0.9,0-2.1c0.5-2.5,1.7-6.4,1.6-6.6c0-0.1,0.2-0.8-0.8-1.1c-1-0.4-1.3,0.2-1.4,0.2c-0.1,0-0.1,0.2-0.1,0.2s1.1-4.4-2-4.4
	c-1.9,0-4.6,2.1-5.9,4c-0.8,0.5-2.6,1.4-4.5,2.4c-0.7,0.4-1.5,0.8-2.2,1.2l-0.1-0.2c-3.7-4-10.6-6.8-10.3-12.1
	c0.1-1.9,0.8-7.1,13.2-13.3c10.2-5.1,18.4-3.7,19.8-0.6c2,4.4-4.4,12.7-15,13.9c-4,0.5-6.2-1.1-6.7-1.7c-0.6-0.6-0.6-0.6-0.8-0.5
	c-0.3,0.2-0.1,0.7,0,1.1c0.3,0.8,1.6,2.3,3.8,3c1.9,0.6,6.7,1,12.4-1.2c6.4-2.5,11.4-9.4,10-15.2c-1.5-5.9-11.2-7.8-20.5-4.5
	c-5.5,2-11.4,5-15.7,9C1.5,16.9,0.7,21,1.1,22.7c1.2,6.1,9.6,10.1,13,13.1c-0.2,0.1-0.3,0.2-0.5,0.3c-1.7,0.8-8.1,4.2-9.8,7.8
	c-1.8,4,0.3,6.9,1.7,7.3c4.4,1.2,8.8-1,11.2-4.5c2.4-3.6,2.1-8.2,1-10.4l0-0.1l1.3-0.8c0.9-0.5,1.7-1,2.4-1.4
	c-0.4,1.1-0.7,2.5-0.9,4.4c-0.2,2.3,0.8,5.3,2,6.4c0.5,0.5,1.2,0.5,1.6,0.5c1.4,0,2.1-1.2,2.8-2.6c0.9-1.7,1.7-3.7,1.7-3.7
	s-1,5.4,1.7,5.4c1,0,2-1.3,2.4-1.9v0c0,0,0,0,0.1-0.1c0.1-0.1,0.1-0.2,0.2-0.2v0c0.4-0.7,1.3-2.2,2.6-4.8c1.7-3.3,3.3-7.5,3.3-7.5
	s0.2,1,0.6,2.7c0.3,1,0.9,2.1,1.4,3.1c-0.4,0.5-0.6,0.9-0.6,0.9l0,0c-0.3,0.4-0.7,0.9-1,1.3c-1.3,1.6-2.9,3.4-3.1,3.9
	c-0.2,0.6-0.2,1.1,0.3,1.4c0.4,0.3,1,0.3,1.6,0.3c1.2-0.1,2-0.4,2.4-0.6c0.7-0.2,1.4-0.6,2.1-1.1c1.3-1,2.1-2.3,2-4.2
	c0-1-0.4-2-0.8-2.9c0.1-0.2,0.2-0.3,0.4-0.5c2.1-3,3.6-6.3,3.6-6.3s0.2,1,0.6,2.7c0.2,0.8,0.7,1.8,1.2,2.7c-1.9,1.6-3.1,3.4-3.6,4.6
	c-0.8,2.2-0.2,3.2,1,3.5c0.5,0.1,1.2-0.1,1.8-0.4c0.7-0.2,1.5-0.6,2.3-1.2c1.3-1,2.6-2.3,2.5-4.1c0-0.8-0.3-1.7-0.6-2.4
	c1.6-0.7,3.8-1.1,6.5-0.7c5.8,0.7,6.9,4.3,6.7,5.8c-0.2,1.5-1.4,2.3-1.8,2.6c-0.4,0.2-0.5,0.3-0.5,0.5c0.1,0.3,0.2,0.3,0.6,0.2
	c0.5-0.1,3-1.2,3.2-4C67.8,34.1,64.4,30.2,58.4,30.2L58.4,30.2z M13.7,45.3c-1.9,2.1-4.6,2.9-5.8,2.2c-1.2-0.7-0.8-3.8,1.6-6
	c1.4-1.4,3.3-2.6,4.5-3.4c0.3-0.2,0.7-0.4,1.2-0.7c0.1-0.1,0.1-0.1,0.1-0.1c0.1-0.1,0.2-0.1,0.3-0.2C16.5,40.3,15.7,43.1,13.7,45.3
	L13.7,45.3z M27.7,35.8c-0.7,1.6-2.1,5.8-2.9,5.6c-0.7-0.2-1.2-3.4-0.1-6.5c0.5-1.6,1.6-3.5,2.3-4.2c1.1-1.2,2.2-1.6,2.5-1.1
	C29.7,30.2,28.1,34.8,27.7,35.8z M39.3,41.3c-0.3,0.1-0.5,0.2-0.7,0.2c-0.1-0.1,0.1-0.2,0.1-0.2s1.4-1.6,2-2.3
	c0.3-0.4,0.7-0.9,1.1-1.4v0.2C41.9,39.6,40.1,40.8,39.3,41.3L39.3,41.3z M48.2,39.3c-0.2-0.2-0.2-0.6,0.5-2.1c0.3-0.6,0.9-1.6,2-2.6
	c0.1,0.4,0.2,0.8,0.2,1.1C50.8,38,49.2,38.9,48.2,39.3z"/>
</svg>
