<?xml version="1.0" encoding="utf-8"?>
<!-- Generator: Adobe Illustrator 22.1.0, SVG Export Plug-In . SVG Version: 6.00 Build 0)  -->
<svg version="1.0" id="Layer_1" xmlns="http://www.w3.org/2000/svg" xmlns:xlink="http://www.w3.org/1999/xlink" x="0px" y="0px"
	 viewBox="0 0 62.8 66.5" style="enable-background:new 0 0 62.8 66.5;" xml:space="preserve">
<style type="text/css">
	.st0{fill:#FFFFFF;}
</style>
<path class="st0" d="M57.7,50L32.6,64.2V53.2l15.7-8.6L57.7,50z M59.4,48.5V18.8l-9.2,5.3v19.1L59.4,48.5L59.4,48.5z M5.2,50
	l25.1,14.2V53.2l-15.7-8.6L5.2,50L5.2,50z M3.5,48.5V18.8l9.2,5.3v19.1L3.5,48.5L3.5,48.5z M4.6,16.8L30.4,2.2V13L13.9,22l-0.1,0.1
	L4.6,16.8z M58.4,16.8L32.6,2.2V13L49.1,22l0.1,0.1L58.4,16.8z"/>
<path class="st0" d="M30.4,50.7l-15.4-8.5V25.3l15.4,8.9V50.7 M32.6,50.7L48,42.2V25.3l-15.4,8.9V50.7 M16,23.4l15.5-8.5L47,23.4
	l-15.5,9L16,23.4"/>
</svg>
