<?xml version="1.0" encoding="utf-8"?>
<!-- Generator: Adobe Illustrator 22.1.0, SVG Export Plug-In . SVG Version: 6.00 Build 0)  -->
<svg version="1.0" id="Layer_1" xmlns="http://www.w3.org/2000/svg" xmlns:xlink="http://www.w3.org/1999/xlink" x="0px" y="0px"
	 viewBox="0 0 60.7 60.7" style="enable-background:new 0 0 60.7 60.7;" xml:space="preserve">
<style type="text/css">
	.st0{fill:#FFFFFF;}
</style>
<g>
	<g>
		<g>
			<path class="st0" d="M5.5,30.3c0,9.8,5.7,18.4,14,22.4L7.7,20.2C6.2,23.4,5.5,26.9,5.5,30.3L5.5,30.3z M47.2,29.1
				c0-3.1-1.1-5.2-2.1-6.9c-1.3-2-2.4-3.8-2.4-5.8c0-2.3,1.7-4.4,4.2-4.4c0.1,0,0.2,0,0.3,0c-4.4-4.1-10.3-6.5-16.8-6.5
				C21.7,5.5,14,9.9,9.6,16.7c0.6,0,1.1,0,1.6,0c2.6,0,6.6-0.3,6.6-0.3c1.3-0.1,1.5,1.9,0.2,2c0,0-1.3,0.2-2.8,0.2l9.1,26.9
				l5.4-16.3l-3.9-10.6c-1.3-0.1-2.6-0.2-2.6-0.2c-1.3-0.1-1.2-2.1,0.2-2c0,0,4.1,0.3,6.6,0.3c2.6,0,6.6-0.3,6.6-0.3
				c1.3-0.1,1.5,1.9,0.2,2c0,0-1.4,0.2-2.8,0.2l9,26.7l2.5-8.3C46.4,33.7,47.2,31.2,47.2,29.1L47.2,29.1z"/>
			<path class="st0" d="M30.8,32.5l-7.5,21.7c2.3,0.7,4.6,1,7,1c2.9,0,5.7-0.5,8.3-1.4c-0.1-0.1-0.1-0.2-0.2-0.3L30.8,32.5z
				 M52.2,18.4c0.1,0.8,0.2,1.6,0.2,2.6c0,2.5-0.5,5.4-1.9,8.9l-7.6,22c7.4-4.3,12.4-12.3,12.4-21.5C55.3,26.2,54.2,22.1,52.2,18.4
				L52.2,18.4z"/>
			<path class="st0" d="M30.4,1.3c-16,0-29,13-29,29c0,16,13,29,29,29c16,0,29-13,29-29C59.4,14.4,46.4,1.3,30.4,1.3z M30.4,58
				C15.1,58,2.7,45.6,2.7,30.3c0-15.3,12.4-27.7,27.7-27.7c15.3,0,27.7,12.4,27.7,27.7C58.1,45.6,45.6,58,30.4,58L30.4,58z"/>
		</g>
	</g>
</g>
</svg>
